#N canvas 0 25 3840 2107 12;
#X text 34 -18 load soundfile in array;
#X text 10 -17 1;
#X text 15 523 2;
#X text 40 524 Set Parameters;
#X obj 181 978 vsl 15 512 0 127 0 0 empty empty start_position -2 -8
0 10 -262144 -1 -1 37559 1;
#X obj 372 968 vsl 15 512 0 -127 0 0 empty empty grain_spread -2 -8
0 10 -262144 -1 -1 5000 1;
#X obj 563 978 vsl 15 512 0 127 0 0 empty empty spatial_spread -2 -8
0 10 -262144 -1 -1 2617 1;
#X obj 754 978 vsl 15 512 0 127 0 0 empty empty grain_length -2 -8
0 10 -262144 -1 -1 13418 1;
#X obj 781 1050 int;
#X floatatom 781 1079 5 0 0 3 grain_length_samples - grain_length_samples
;
#X obj 781 982 / 127;
#X obj 199 982 / 127;
#X obj 199 1005 *;
#X obj 228 1005 r len_array;
#X obj 1763 215 s len_array;
#X floatatom 1763 193 10 0 0 0 - - -;
#X obj 199 1028 int;
#X floatatom 199 1051 10 0 0 3 start_position_samples - start_position_samples
;
#X msg 1863 192 41000;
#X obj 1863 215 s sr;
#X obj 781 1275 /;
#X obj 803 1235 r sr;
#X floatatom 781 1298 5 0 0 3 grain_length_sec - grain_length_sec;
#X obj 781 1004 0;
#X obj 199 1281 /;
#X obj 215 1241 r sr;
#X floatatom 199 1304 5 0 0 3 start_position_sec - start_position_sec
;
#X obj 1915 215 s max_grain_spread_ms;
#X obj 1901 278 r max_grain_spread_ms;
#X obj 394 1108 / 127;
#X obj 394 1131 *;
#X obj 394 1154 int;
#X floatatom 394 1177 15 0 0 3 grain_spread_samples - grain_spread_samples
;
#X obj 1901 301 expr $f1*$f2/1000;
#X obj 2030 303 r sr;
#X floatatom 1901 324 5 0 0 3 max_grain_spread_samples - max_grain_spread_samples
;
#X obj 394 1284 /;
#X obj 412 1242 r sr;
#X floatatom 394 1307 5 0 0 3 grain_spread_sec - grain_spread_sec;
#X obj 590 982 / 127;
#X floatatom 590 1030 5 0 0 3 grain_spatial_spread - grain_spatial_spread
;
#X obj 590 1005 * 1;
#X obj 1763 126 soundfiler;
#X obj 782 1210 r grain_length_samples;
#X obj 400 1076 r max_grain_spread_samples;
#X obj 394 1263 r grain_spread_samples;
#X obj 199 1218 r start_position_samples;
#X obj 1850 1988 dac~;
#X obj 1791 1931 *~;
#X obj 2226 1840 vsl 15 128 0 1 0 0 empty empty empty 0 -9 0 10 -262144
-1 -1 3700 1;
#X obj 1791 1954 *~ 0.9;
#X obj 962 979 vsl 15 512 0 127 0 0 empty empty speed_multiple -2 -8
0 10 -262144 -1 -1 7303 1;
#X obj 962 922 r len_array;
#X floatatom 1013 1169 5 0 0 1 multiplier - multiplier;
#X obj 1008 1069 t b f;
#X floatatom 1037 1098 5 0 0 0 - - -;
#X msg 1005 1098 1;
#X obj 1005 1121 /;
#X obj 1000 1012 * 7;
#X obj 1000 989 / 127;
#X msg 963 943 18.15;
#X obj 95 5 hsl 1600 60 0 127 0 0 empty empty empty -2 -8 0 10 -204786
-262144 -1 117528 1;
#X obj 1634 1831 env~;
#X floatatom 1634 1854 5 0 0 0 - - -;
#X obj 1675 1811 *~ 1;
#X obj 95 65 hsl 1600 60 0 127 0 0 empty empty empty -2 -8 0 10 -204786
-1 -1 117100 1;
#X obj 95 125 hsl 1600 60 0 127 0 0 empty empty empty -2 -8 0 10 -204786
-1 -1 116672 1;
#X obj 13 97 r pos_2nd;
#X obj 7 155 r pos_3rd;
#N canvas 0 22 450 278 (subpatch) 0;
#X array l 749568 float 2;
#X coords 0 1 749568 -1 1600 180 1 0 0;
#X restore 92 5 graph;
#X obj 216 1099 s pos_1st;
#X obj 163 1515 r pos_force;
#X obj 5 40 r pos_1st;
#X text 139 383 load soundfile in array;
#X text 124 384 1;
#X obj 95 192 hsl 1600 60 0 127 0 0 empty empty empty -2 -8 0 10 -204786
-262144 -1 120102 1;
#X obj 95 252 hsl 1600 60 0 127 0 0 empty empty empty -2 -8 0 10 -204786
-1 -1 119554 1;
#X obj 95 312 hsl 1600 60 0 127 0 0 empty empty empty -2 -8 0 10 -204786
-1 -1 119007 1;
#N canvas 0 22 450 278 (subpatch) 0;
#X array r 749568 float 2;
#X coords 0 1 749568 -1 1600 180 1 0 0;
#X restore 92 192 graph;
#X msg 1763 43 read -resize samples/sample1.wav l r;
#X msg 1764 63 read -resize samples/sample2.wav l r;
#X msg 1763 83 read -resize samples/sample3.wav l r;
#X msg 1763 103 read -resize samples/sample4.wav l r;
#X msg 2045 43 read -resize samples/sample5.wav l r;
#X msg 2045 63 read -resize samples/sample6.wav l r;
#X msg 2045 83 read -resize samples/sample7.wav l r;
#X msg 2375 58 read -resize samples/HongKongTrail.mp3 l r;
#X msg 2376 76 read -resize samples/WaterStream.mp3 l r;
#X obj 1904 1849 env~;
#X floatatom 1904 1872 5 0 0 0 - - -;
#X obj 1859 1826 *~ 1;
#X obj 1888 1932 *~;
#X obj 1888 1955 *~ 0.9;
#X msg 2375 40 read -resize samples/canadian_forest.wav l r;
#X msg 2376 95 read -resize samples/la_reunion.wav l r;
#X msg 1858 163 192000;
#X obj 1005 1144 expr round($f1*1000)/1000;
#X obj 2706 87 oscparse;
#X obj 2706 109 list trim;
#X msg 2705 40 listen 8000;
#X obj 2706 65 netreceive -u -b 8000;
#X obj 2706 138 list trim;
#X obj 360 654 route x y;
#X msg 360 677 \$1 50;
#X obj 360 700 line;
#X obj 359 831 spigot;
#X obj 383 812 tgl 15 0 empty empty empty 17 7 0 10 -262144 -1 -1 1
1;
#X floatatom 357 895 5 0 0 0 - - -;
#X obj 360 768 int;
#X floatatom 360 791 5 0 127 0 - - -;
#X obj 360 745 * 128;
#X obj 362 724 hsl 20 15 0 1 0 0 empty empty empty -2 -8 0 10 -262144
-1 -1 1365 1;
#X msg 409 677 \$1 50;
#X obj 409 700 line;
#X obj 408 831 spigot;
#X obj 432 812 tgl 15 0 empty empty empty 17 7 0 10 -262144 -1 -1 0
1;
#X floatatom 408 854 5 0 0 0 - - -;
#X obj 409 768 int;
#X floatatom 409 791 5 0 127 0 - - -;
#X obj 409 745 * 128;
#X obj 411 724 hsl 20 15 0 1 0 0 empty empty empty -2 -8 0 10 -262144
-1 -1 1651 1;
#X obj 463 653 route x y;
#X obj 463 699 line;
#X obj 462 830 spigot;
#X obj 486 811 tgl 15 0 empty empty empty 17 7 0 10 -262144 -1 -1 1
1;
#X floatatom 462 853 5 0 0 0 - - -;
#X floatatom 463 790 5 0 127 0 - - -;
#X obj 463 744 * 128;
#X obj 465 723 hsl 20 15 0 1 0 0 empty empty empty -2 -8 0 10 -262144
-1 -1 1386 1;
#X obj 513 698 line;
#X obj 512 829 spigot;
#X obj 536 810 tgl 15 0 empty empty empty 17 7 0 10 -262144 -1 -1 0
1;
#X floatatom 512 852 5 0 0 0 - - -;
#X obj 513 766 int;
#X floatatom 513 789 5 0 127 0 - - -;
#X obj 513 743 * 128;
#X obj 515 722 hsl 20 15 0 1 0 0 empty empty empty -2 -8 0 10 -262144
-1 -1 1491 1;
#X obj 565 652 route x y;
#X msg 565 675 \$1 50;
#X obj 565 698 line;
#X obj 564 829 spigot;
#X obj 588 810 tgl 15 0 empty empty empty 17 7 0 10 -262144 -1 -1 0
1;
#X floatatom 564 852 5 0 0 0 - - -;
#X obj 565 766 int;
#X floatatom 565 789 5 0 127 0 - - -;
#X obj 565 743 * 128;
#X obj 567 722 hsl 20 15 0 1 0 0 empty empty empty -2 -8 0 10 -262144
-1 -1 1340 1;
#X msg 616 675 \$1 50;
#X obj 616 698 line;
#X obj 615 829 spigot;
#X obj 639 810 tgl 15 0 empty empty empty 17 7 0 10 -262144 -1 -1 0
1;
#X floatatom 615 852 5 0 0 0 - - -;
#X obj 616 766 int;
#X floatatom 616 789 5 0 127 0 - - -;
#X obj 616 743 * 128;
#X obj 618 722 hsl 20 15 0 1 0 0 empty empty empty -2 -8 0 10 -262144
-1 -1 1650 1;
#X text 2911 53 3;
#X text 2926 52 enable OSC;
#X msg 2045 102 read -resize samples/lung_sounds.wav r;
#X text 707 946 evl kubisch skalieren für spannung?;
#X obj 2704 159 route h0 h1 both;
#X obj 362 628 route f0 f1 f2 dist_ti dist_ip dist_pt, f 66;
#X obj 3541 239 route tt ii pp;
#X obj 682 706 line;
#X obj 680 859 spigot;
#X obj 704 840 tgl 15 0 empty empty empty 17 7 0 10 -262144 -1 -1 1
1;
#X floatatom 680 882 5 0 0 0 - - -;
#X floatatom 681 818 5 0 127 0 - - -;
#X obj 684 730 hsl 20 15 0 1 0 0 empty empty empty -2 -8 0 10 -262144
-1 -1 1900 1;
#X obj 731 706 line;
#X obj 729 859 spigot;
#X obj 753 840 tgl 15 0 empty empty empty 17 7 0 10 -262144 -1 -1 0
1;
#X floatatom 729 882 5 0 0 0 - - -;
#X floatatom 730 819 5 0 127 0 - - -;
#X obj 733 730 hsl 20 15 0 1 0 0 empty empty empty -2 -8 0 10 -262144
-1 -1 1900 1;
#X obj 785 705 line;
#X obj 783 858 spigot;
#X obj 807 839 tgl 15 0 empty empty empty 17 7 0 10 -262144 -1 -1 1
1;
#X floatatom 783 881 5 0 0 0 - - -;
#X floatatom 784 818 5 0 127 0 - - -;
#X obj 787 729 hsl 20 15 0 1 0 0 empty empty empty -2 -8 0 10 -262144
-1 -1 1900 1;
#X obj 3734 117 metro;
#X msg 3536 306 \$1 50;
#X obj 3536 329 line;
#X obj 3535 460 spigot;
#X obj 3559 441 tgl 15 0 empty empty empty 17 7 0 10 -262144 -1 -1
0 1;
#X floatatom 3535 483 5 0 0 0 - - -;
#X obj 3536 397 int;
#X floatatom 3536 420 5 0 127 0 - - -;
#X obj 3536 374 * 128;
#X obj 3538 353 hsl 20 15 0 1 0 0 empty empty empty -2 -8 0 10 -262144
-1 -1 1900 1;
#X msg 3585 306 \$1 50;
#X obj 3585 329 line;
#X obj 3584 460 spigot;
#X obj 3608 441 tgl 15 0 empty empty empty 17 7 0 10 -262144 -1 -1
0 1;
#X floatatom 3584 483 5 0 0 0 - - -;
#X obj 3585 397 int;
#X floatatom 3585 420 5 0 127 0 - - -;
#X obj 3585 374 * 128;
#X obj 3587 353 hsl 20 15 0 1 0 0 empty empty empty -2 -8 0 10 -262144
-1 -1 1900 1;
#X msg 3639 305 \$1 50;
#X obj 3639 328 line;
#X obj 3638 459 spigot;
#X obj 3662 440 tgl 15 0 empty empty empty 17 7 0 10 -262144 -1 -1
0 1;
#X floatatom 3638 482 5 0 0 0 - - -;
#X obj 3639 396 int;
#X floatatom 3639 419 5 0 127 0 - - -;
#X obj 3639 373 * 128;
#X obj 3641 352 hsl 20 15 0 1 0 0 empty empty empty -2 -8 0 10 -262144
-1 -1 1900 1;
#X obj 2311 243 tgl 15 0 empty empty empty 17 7 0 10 -262144 -1 -1
0 1;
#X obj 1745 173 bng 15 250 50 0 empty empty empty 17 7 0 10 -262144
-1 -1;
#X obj 781 1027 * 20500;
#X obj 1662 1782 +~;
#X obj 761 1702 s pos_3rd;
#X obj 1023 1703 s pos_2nd;
#X obj 1877 1797 +~;
#X obj 403 1572 r grain_length_samples;
#X obj 107 1571 r sr;
#X obj 146 1571 r grain_length_samples;
#X obj 574 1570 r start_position_samples;
#X obj 315 1572 r len_array;
#X obj 761 1570 r grain_spread_samples;
#X obj 932 1567 r grain_spatial_spread;
#X text 2604 994 Set Parameters;
#X obj 2604 1035 vsl 15 512 0 127 0 0 empty empty start_position2 -2
-8 0 10 -262144 -1 -1 38382 1;
#X obj 2795 1025 vsl 15 512 0 -127 0 0 empty empty grain_spread2 -2
-8 0 10 -262144 -1 -1 6400 1;
#X obj 2986 1035 vsl 15 512 0 127 0 0 empty empty spatial_spread2 -2
-8 0 10 -262144 -1 -1 12371 1;
#X obj 3177 1035 vsl 15 512 0 127 0 0 empty empty grain_length2 -2
-8 0 10 -262144 -1 -1 4756 1;
#X obj 3204 1107 int;
#X obj 3204 1039 / 127;
#X obj 2622 1039 / 127;
#X obj 2622 1062 *;
#X obj 2651 1062 r len_array;
#X obj 2622 1085 int;
#X obj 3204 1332 /;
#X obj 3226 1292 r sr;
#X obj 3204 1061 0;
#X obj 2622 1338 /;
#X obj 2638 1298 r sr;
#X obj 2817 1165 / 127;
#X obj 2817 1188 *;
#X obj 2817 1211 int;
#X obj 2817 1341 /;
#X obj 2835 1299 r sr;
#X obj 3013 1039 / 127;
#X obj 3013 1062 * 1;
#X obj 2823 1133 r max_grain_spread_samples;
#X obj 3385 1036 vsl 15 512 0 127 0 0 empty empty speed_multiple2 -2
-8 0 10 -262144 -1 -1 7303 1;
#X obj 3385 979 r len_array;
#X obj 3431 1126 t b f;
#X floatatom 3465 1161 5 0 0 0 - - -;
#X msg 3428 1155 1;
#X obj 3428 1178 /;
#X obj 3423 1069 * 7;
#X obj 3423 1046 / 127;
#X msg 3386 1000 18.15;
#X obj 3428 1201 expr round($f1*1000)/1000;
#X text 3130 1003 evl kubisch skalieren für spannung?;
#X obj 3204 1084 * 20500;
#X obj 2586 1572 r pos_force2;
#X obj 2639 1156 s pos_1st2;
#X obj 2622 1275 r start_position_samples2;
#X obj 2817 1320 r grain_spread_samples2;
#X obj 3205 1267 r grain_length_samples2;
#X obj 1069 1604 r multiplier;
#X obj 5 227 r pos_1st2;
#X obj 13 284 r pos_2nd2;
#X obj 7 342 r pos_3rd2;
#X obj 349 1654 supergrain, f 68;
#X obj 2553 1611 r sr;
#X obj 2761 1612 r len_array;
#X obj 2795 1694 supergrain, f 68;
#X obj 2592 1611 r grain_length_samples2;
#X obj 2849 1612 r grain_length_samples2;
#X obj 3020 1610 r start_position_samples2;
#X obj 3207 1610 r grain_spread_samples2;
#X obj 3378 1607 r grain_spatial_spread2;
#X obj 3515 1644 r multiplier2;
#X obj 3469 1743 s pos_2nd2;
#X obj 3207 1742 s pos_3rd2;
#X floatatom 1075 1636 5 0 0 0 - - -;
#X floatatom 3522 1680 5 0 0 0 - - -;
#X floatatom 3428 1224 5 0 0 1 multiplier2 - multiplier2;
#X floatatom 3204 1130 5 0 0 1 grain_length_samples2 - grain_length_samples2
;
#X floatatom 3204 1355 5 0 0 1 grain_length_sec2 - grain_length_sec2
;
#X floatatom 3013 1085 5 0 0 1 grain_spatial_spread2 - grain_spatial_spread2
;
#X floatatom 2817 1234 5 0 0 1 grain_spread_samples2 - grain_spread_samples2
;
#X floatatom 2817 1364 5 0 0 1 grain_spread_sec2 - grain_spread_sec2
;
#X floatatom 2622 1361 5 0 0 1 start_position_sec2 - start_position_sec2
;
#X floatatom 2622 1108 15 0 0 1 start_position_samples2 - start_position_samples2
;
#X msg 1915 192 1000;
#X obj 1208 1477 *~;
#X obj 1222 956 vsl 15 512 0 1 0 0 empty empty volume 0 -9 0 10 -262144
-1 -1 0 1;
#X obj 1243 1478 *~;
#X obj 2405 1558 *~;
#X obj 3640 1055 vsl 15 512 0 1 0 0 empty empty volume 0 -9 0 10 -262144
-1 -1 0 1;
#X obj 2440 1559 *~;
#X obj 3707 977 delay 1 1 sec;
#X msg 3614 976 1 1000;
#X floatatom 3649 1586 5 0 0 0 - - -;
#X obj 3614 999 line 0 20;
#X msg 3696 1000 0 3000;
#X obj 1315 894 delay 1 1 sec;
#X msg 1222 893 1 1000;
#X obj 1222 916 line 0 20;
#X msg 1304 917 0 3000;
#X msg 682 683 \$1 500;
#X msg 463 676 \$1 500;
#X msg 513 675 \$1 500;
#X obj 682 751 / 4;
#X obj 731 751 / 6;
#X msg 731 683 \$1 500;
#X msg 785 682 \$1 500;
#X obj 2824 686 route x y;
#X msg 2824 709 \$1 50;
#X obj 2824 732 line;
#X obj 2823 863 spigot;
#X obj 2847 844 tgl 15 0 empty empty empty 17 7 0 10 -262144 -1 -1
1 1;
#X floatatom 2821 927 5 0 0 0 - - -;
#X obj 2824 800 int;
#X floatatom 2824 823 5 0 127 0 - - -;
#X obj 2824 777 * 128;
#X obj 2826 756 hsl 20 15 0 1 0 0 empty empty empty -2 -8 0 10 -262144
-1 -1 1408 1;
#X msg 2873 709 \$1 50;
#X obj 2873 732 line;
#X obj 2872 863 spigot;
#X obj 2896 844 tgl 15 0 empty empty empty 17 7 0 10 -262144 -1 -1
0 1;
#X floatatom 2872 886 5 0 0 0 - - -;
#X obj 2873 800 int;
#X floatatom 2873 823 5 0 127 0 - - -;
#X obj 2873 777 * 128;
#X obj 2875 756 hsl 20 15 0 1 0 0 empty empty empty -2 -8 0 10 -262144
-1 -1 1861 1;
#X obj 2927 685 route x y;
#X obj 2927 731 line;
#X obj 2926 862 spigot;
#X obj 2950 843 tgl 15 0 empty empty empty 17 7 0 10 -262144 -1 -1
1 1;
#X floatatom 2926 885 5 0 0 0 - - -;
#X floatatom 2927 822 5 0 127 0 - - -;
#X obj 2927 776 * 128;
#X obj 2929 755 hsl 20 15 0 1 0 0 empty empty empty -2 -8 0 10 -262144
-1 -1 1416 1;
#X obj 2977 730 line;
#X obj 2976 861 spigot;
#X obj 3000 842 tgl 15 0 empty empty empty 17 7 0 10 -262144 -1 -1
0 1;
#X floatatom 2976 884 5 0 0 0 - - -;
#X obj 2977 798 int;
#X floatatom 2977 821 5 0 127 0 - - -;
#X obj 2977 775 * 128;
#X obj 2979 754 hsl 20 15 0 1 0 0 empty empty empty -2 -8 0 10 -262144
-1 -1 1859 1;
#X obj 3029 684 route x y;
#X msg 3029 707 \$1 50;
#X obj 3029 730 line;
#X obj 3028 861 spigot;
#X obj 3052 842 tgl 15 0 empty empty empty 17 7 0 10 -262144 -1 -1
0 1;
#X floatatom 3028 884 5 0 0 0 - - -;
#X obj 3029 798 int;
#X floatatom 3029 821 5 0 127 0 - - -;
#X obj 3029 775 * 128;
#X obj 3031 754 hsl 20 15 0 1 0 0 empty empty empty -2 -8 0 10 -262144
-1 -1 1528 1;
#X msg 3080 707 \$1 50;
#X obj 3080 730 line;
#X obj 3079 861 spigot;
#X obj 3103 842 tgl 15 0 empty empty empty 17 7 0 10 -262144 -1 -1
0 1;
#X floatatom 3079 884 5 0 0 0 - - -;
#X obj 3080 798 int;
#X floatatom 3080 821 5 0 127 0 - - -;
#X obj 3080 775 * 128;
#X obj 3082 754 hsl 20 15 0 1 0 0 empty empty empty -2 -8 0 10 -262144
-1 -1 1900 1;
#X obj 2826 660 route f0 f1 f2 dist_ti dist_ip dist_pt, f 66;
#X obj 3146 738 line;
#X obj 3144 891 spigot;
#X obj 3168 872 tgl 15 0 empty empty empty 17 7 0 10 -262144 -1 -1
1 1;
#X floatatom 3144 914 5 0 0 0 - - -;
#X floatatom 3145 850 5 0 127 0 - - -;
#X obj 3148 762 hsl 20 15 0 1 0 0 empty empty empty -2 -8 0 10 -262144
-1 -1 1900 1;
#X obj 3195 738 line;
#X obj 3193 891 spigot;
#X obj 3217 872 tgl 15 0 empty empty empty 17 7 0 10 -262144 -1 -1
0 1;
#X floatatom 3193 914 5 0 0 0 - - -;
#X floatatom 3194 851 5 0 127 0 - - -;
#X obj 3197 762 hsl 20 15 0 1 0 0 empty empty empty -2 -8 0 10 -262144
-1 -1 1900 1;
#X obj 3249 737 line;
#X obj 3247 890 spigot;
#X obj 3271 871 tgl 15 0 empty empty empty 17 7 0 10 -262144 -1 -1
1 1;
#X floatatom 3247 913 5 0 0 0 - - -;
#X floatatom 3248 850 5 0 127 0 - - -;
#X obj 3251 761 hsl 20 15 0 1 0 0 empty empty empty -2 -8 0 10 -262144
-1 -1 1900 1;
#X obj 2312 267 tgl 15 0 empty empty empty 17 7 0 10 -262144 -1 -1
0 1;
#X msg 3146 715 \$1 500;
#X msg 2927 708 \$1 500;
#X msg 2977 707 \$1 500;
#X obj 3146 783 / 4;
#X obj 3195 783 / 6;
#X msg 3195 715 \$1 500;
#X msg 3249 714 \$1 500;
#X obj 785 750 / 4;
#X obj 3249 782 / 4;
#X obj 682 774 + 10;
#X obj 3146 806 + 10;
#X connect 4 0 11 0;
#X connect 4 0 70 0;
#X connect 5 0 29 0;
#X connect 6 0 39 0;
#X connect 7 0 10 0;
#X connect 8 0 9 0;
#X connect 10 0 23 0;
#X connect 11 0 12 0;
#X connect 12 0 16 0;
#X connect 13 0 12 1;
#X connect 15 0 14 0;
#X connect 16 0 17 0;
#X connect 18 0 19 0;
#X connect 20 0 22 0;
#X connect 21 0 20 1;
#X connect 23 0 211 0;
#X connect 24 0 26 0;
#X connect 25 0 24 1;
#X connect 28 0 33 0;
#X connect 29 0 30 0;
#X connect 30 0 31 0;
#X connect 31 0 32 0;
#X connect 33 0 35 0;
#X connect 34 0 33 1;
#X connect 36 0 38 0;
#X connect 37 0 36 1;
#X connect 39 0 41 0;
#X connect 41 0 40 0;
#X connect 42 0 15 0;
#X connect 43 0 20 0;
#X connect 44 0 30 1;
#X connect 45 0 36 0;
#X connect 46 0 24 0;
#X connect 48 0 50 0;
#X connect 49 0 48 1;
#X connect 49 0 91 1;
#X connect 50 0 47 0;
#X connect 51 0 59 0;
#X connect 52 0 60 0;
#X connect 54 0 56 0;
#X connect 54 1 55 0;
#X connect 55 0 57 1;
#X connect 56 0 57 0;
#X connect 57 0 96 0;
#X connect 58 0 54 0;
#X connect 59 0 58 0;
#X connect 60 0 51 0;
#X connect 62 0 63 0;
#X connect 64 0 62 0;
#X connect 64 0 48 0;
#X connect 67 0 65 0;
#X connect 68 0 66 0;
#X connect 71 0 4 0;
#X connect 72 0 61 0;
#X connect 79 0 42 0;
#X connect 80 0 42 0;
#X connect 81 0 42 0;
#X connect 82 0 42 0;
#X connect 83 0 42 0;
#X connect 84 0 42 0;
#X connect 85 0 42 0;
#X connect 86 0 42 0;
#X connect 87 0 42 0;
#X connect 88 0 89 0;
#X connect 90 0 88 0;
#X connect 90 0 91 0;
#X connect 91 0 92 0;
#X connect 92 0 47 1;
#X connect 93 0 42 0;
#X connect 94 0 42 0;
#X connect 95 0 19 0;
#X connect 96 0 53 0;
#X connect 97 0 98 0;
#X connect 98 0 101 0;
#X connect 99 0 100 0;
#X connect 100 0 97 0;
#X connect 101 0 160 0;
#X connect 102 0 103 0;
#X connect 102 1 112 0;
#X connect 103 0 104 0;
#X connect 104 0 111 0;
#X connect 105 0 107 0;
#X connect 106 0 105 1;
#X connect 107 0 303 0;
#X connect 108 0 109 0;
#X connect 109 0 105 0;
#X connect 110 0 108 0;
#X connect 111 0 110 0;
#X connect 112 0 113 0;
#X connect 113 0 120 0;
#X connect 114 0 116 0;
#X connect 115 0 114 1;
#X connect 117 0 118 0;
#X connect 118 0 114 0;
#X connect 119 0 117 0;
#X connect 120 0 119 0;
#X connect 121 0 307 0;
#X connect 121 1 308 0;
#X connect 122 0 128 0;
#X connect 123 0 125 0;
#X connect 124 0 123 1;
#X connect 125 0 4 0;
#X connect 126 0 123 0;
#X connect 127 0 126 0;
#X connect 128 0 127 0;
#X connect 129 0 136 0;
#X connect 130 0 132 0;
#X connect 131 0 130 1;
#X connect 133 0 134 0;
#X connect 134 0 130 0;
#X connect 135 0 133 0;
#X connect 136 0 135 0;
#X connect 137 0 138 0;
#X connect 137 1 147 0;
#X connect 138 0 139 0;
#X connect 139 0 146 0;
#X connect 140 0 142 0;
#X connect 141 0 140 1;
#X connect 143 0 144 0;
#X connect 144 0 140 0;
#X connect 145 0 143 0;
#X connect 146 0 145 0;
#X connect 147 0 148 0;
#X connect 148 0 155 0;
#X connect 149 0 151 0;
#X connect 150 0 149 1;
#X connect 152 0 153 0;
#X connect 153 0 149 0;
#X connect 154 0 152 0;
#X connect 155 0 154 0;
#X connect 158 0 42 0;
#X connect 160 0 161 0;
#X connect 160 1 367 0;
#X connect 160 2 162 0;
#X connect 161 0 102 0;
#X connect 161 1 121 0;
#X connect 161 2 137 0;
#X connect 161 3 306 0;
#X connect 161 4 311 0;
#X connect 161 5 312 0;
#X connect 162 0 182 0;
#X connect 162 1 191 0;
#X connect 162 2 200 0;
#X connect 163 0 168 0;
#X connect 164 0 166 0;
#X connect 165 0 164 1;
#X connect 166 0 7 0;
#X connect 167 0 164 0;
#X connect 168 0 309 0;
#X connect 169 0 174 0;
#X connect 170 0 172 0;
#X connect 171 0 170 1;
#X connect 173 0 170 0;
#X connect 174 0 310 0;
#X connect 175 0 180 0;
#X connect 176 0 178 0;
#X connect 177 0 176 1;
#X connect 178 0 6 0;
#X connect 179 0 176 0;
#X connect 180 0 394 0;
#X connect 182 0 183 0;
#X connect 183 0 190 0;
#X connect 184 0 186 0;
#X connect 185 0 184 1;
#X connect 187 0 188 0;
#X connect 188 0 184 0;
#X connect 189 0 187 0;
#X connect 190 0 189 0;
#X connect 191 0 192 0;
#X connect 192 0 199 0;
#X connect 193 0 195 0;
#X connect 194 0 193 1;
#X connect 196 0 197 0;
#X connect 197 0 193 0;
#X connect 198 0 196 0;
#X connect 199 0 198 0;
#X connect 200 0 201 0;
#X connect 201 0 208 0;
#X connect 202 0 204 0;
#X connect 203 0 202 1;
#X connect 205 0 206 0;
#X connect 206 0 202 0;
#X connect 207 0 205 0;
#X connect 208 0 207 0;
#X connect 209 0 106 0;
#X connect 209 0 115 0;
#X connect 209 0 124 0;
#X connect 209 0 131 0;
#X connect 209 0 141 0;
#X connect 209 0 150 0;
#X connect 209 0 165 0;
#X connect 209 0 171 0;
#X connect 209 0 177 0;
#X connect 209 0 185 0;
#X connect 209 0 194 0;
#X connect 209 0 203 0;
#X connect 209 0 386 0;
#X connect 210 0 15 0;
#X connect 211 0 8 0;
#X connect 212 0 64 0;
#X connect 215 0 90 0;
#X connect 216 0 268 3;
#X connect 217 0 268 0;
#X connect 218 0 268 1;
#X connect 219 0 268 4;
#X connect 220 0 268 2;
#X connect 221 0 268 5;
#X connect 222 0 268 6;
#X connect 224 0 230 0;
#X connect 224 0 260 0;
#X connect 225 0 239 0;
#X connect 226 0 244 0;
#X connect 227 0 229 0;
#X connect 228 0 283 0;
#X connect 229 0 236 0;
#X connect 230 0 231 0;
#X connect 231 0 233 0;
#X connect 232 0 231 1;
#X connect 233 0 289 0;
#X connect 234 0 284 0;
#X connect 235 0 234 1;
#X connect 236 0 258 0;
#X connect 237 0 288 0;
#X connect 238 0 237 1;
#X connect 239 0 240 0;
#X connect 240 0 241 0;
#X connect 241 0 286 0;
#X connect 242 0 287 0;
#X connect 243 0 242 1;
#X connect 244 0 245 0;
#X connect 245 0 285 0;
#X connect 246 0 240 1;
#X connect 247 0 254 0;
#X connect 248 0 255 0;
#X connect 249 0 251 0;
#X connect 249 1 250 0;
#X connect 250 0 252 1;
#X connect 251 0 252 0;
#X connect 252 0 256 0;
#X connect 253 0 249 0;
#X connect 254 0 253 0;
#X connect 255 0 247 0;
#X connect 256 0 282 0;
#X connect 258 0 228 0;
#X connect 259 0 224 0;
#X connect 261 0 237 0;
#X connect 262 0 242 0;
#X connect 263 0 234 0;
#X connect 264 0 268 7;
#X connect 264 0 280 0;
#X connect 265 0 75 0;
#X connect 266 0 76 0;
#X connect 267 0 77 0;
#X connect 268 0 291 0;
#X connect 268 1 293 0;
#X connect 268 2 213 0;
#X connect 268 3 214 0;
#X connect 269 0 271 0;
#X connect 270 0 271 2;
#X connect 271 0 294 0;
#X connect 271 1 296 0;
#X connect 271 2 279 0;
#X connect 271 3 278 0;
#X connect 272 0 271 1;
#X connect 273 0 271 3;
#X connect 274 0 271 4;
#X connect 275 0 271 5;
#X connect 276 0 271 6;
#X connect 277 0 271 7;
#X connect 277 0 281 0;
#X connect 290 0 27 0;
#X connect 291 0 212 0;
#X connect 292 0 291 1;
#X connect 292 0 293 1;
#X connect 293 0 215 0;
#X connect 294 0 212 0;
#X connect 295 0 294 1;
#X connect 295 0 296 1;
#X connect 295 0 299 0;
#X connect 296 0 215 0;
#X connect 297 0 301 0;
#X connect 298 0 297 0;
#X connect 298 0 300 0;
#X connect 300 0 295 0;
#X connect 301 0 300 0;
#X connect 302 0 305 0;
#X connect 303 0 302 0;
#X connect 303 0 304 0;
#X connect 304 0 292 0;
#X connect 305 0 304 0;
#X connect 306 0 163 0;
#X connect 307 0 122 0;
#X connect 308 0 129 0;
#X connect 309 0 396 0;
#X connect 310 0 173 0;
#X connect 311 0 169 0;
#X connect 312 0 175 0;
#X connect 313 0 314 0;
#X connect 313 1 323 0;
#X connect 314 0 315 0;
#X connect 315 0 322 0;
#X connect 316 0 318 0;
#X connect 317 0 316 1;
#X connect 318 0 298 0;
#X connect 319 0 320 0;
#X connect 320 0 316 0;
#X connect 321 0 319 0;
#X connect 322 0 321 0;
#X connect 323 0 324 0;
#X connect 324 0 331 0;
#X connect 325 0 327 0;
#X connect 326 0 325 1;
#X connect 328 0 329 0;
#X connect 329 0 325 0;
#X connect 330 0 328 0;
#X connect 331 0 330 0;
#X connect 332 0 388 0;
#X connect 332 1 389 0;
#X connect 333 0 339 0;
#X connect 334 0 336 0;
#X connect 335 0 334 1;
#X connect 336 0 224 0;
#X connect 337 0 334 0;
#X connect 338 0 337 0;
#X connect 339 0 338 0;
#X connect 340 0 347 0;
#X connect 341 0 343 0;
#X connect 342 0 341 1;
#X connect 344 0 345 0;
#X connect 345 0 341 0;
#X connect 346 0 344 0;
#X connect 347 0 346 0;
#X connect 348 0 349 0;
#X connect 348 1 358 0;
#X connect 349 0 350 0;
#X connect 350 0 357 0;
#X connect 351 0 353 0;
#X connect 352 0 351 1;
#X connect 354 0 355 0;
#X connect 355 0 351 0;
#X connect 356 0 354 0;
#X connect 357 0 356 0;
#X connect 358 0 359 0;
#X connect 359 0 366 0;
#X connect 360 0 362 0;
#X connect 361 0 360 1;
#X connect 363 0 364 0;
#X connect 364 0 360 0;
#X connect 365 0 363 0;
#X connect 366 0 365 0;
#X connect 367 0 313 0;
#X connect 367 1 332 0;
#X connect 367 2 348 0;
#X connect 367 3 387 0;
#X connect 367 4 392 0;
#X connect 367 5 393 0;
#X connect 368 0 373 0;
#X connect 369 0 371 0;
#X connect 370 0 369 1;
#X connect 371 0 227 0;
#X connect 372 0 369 0;
#X connect 373 0 390 0;
#X connect 374 0 379 0;
#X connect 375 0 377 0;
#X connect 376 0 375 1;
#X connect 378 0 375 0;
#X connect 379 0 391 0;
#X connect 380 0 385 0;
#X connect 381 0 383 0;
#X connect 382 0 381 1;
#X connect 383 0 226 0;
#X connect 384 0 381 0;
#X connect 385 0 395 0;
#X connect 386 0 317 0;
#X connect 386 0 326 0;
#X connect 386 0 335 0;
#X connect 386 0 342 0;
#X connect 386 0 352 0;
#X connect 386 0 361 0;
#X connect 386 0 370 0;
#X connect 386 0 376 0;
#X connect 386 0 382 0;
#X connect 387 0 368 0;
#X connect 388 0 333 0;
#X connect 389 0 340 0;
#X connect 390 0 397 0;
#X connect 391 0 378 0;
#X connect 392 0 374 0;
#X connect 393 0 380 0;
#X connect 394 0 179 0;
#X connect 395 0 384 0;
#X connect 396 0 167 0;
#X connect 397 0 372 0;
