#N canvas 1342 25 2486 2107 12;
#X text 34 -18 load soundfile in array;
#X text 10 -17 1;
#X text 15 523 2;
#X text 40 524 Set Parameters;
#X obj 181 978 vsl 15 512 0 127 0 0 empty empty start_position -2 -8
0 10 -262144 -1 -1 9228 1;
#X obj 372 968 vsl 15 512 0 -127 0 0 empty empty grain_spread -2 -8
0 10 -262144 -1 -1 0 1;
#X obj 563 978 vsl 15 512 0 127 0 0 empty empty spatial_spread -2 -8
0 10 -262144 -1 -1 39003 1;
#X obj 754 978 vsl 15 512 0 127 0 0 empty empty grain_length -2 -8
0 10 -262144 -1 -1 38016 1;
#X obj 1763 215 s len_array;
#X floatatom 1763 193 10 0 0 0 - - -;
#X msg 1863 192 41000;
#X obj 1863 215 s sr;
#X obj 1915 215 s max_grain_spread_ms;
#X obj 1901 278 r max_grain_spread_ms;
#X obj 1901 301 expr $f1*$f2/1000;
#X obj 2030 303 r sr;
#X floatatom 1901 324 5 0 0 3 max_grain_spread_samples - max_grain_spread_samples
;
#X obj 1763 126 soundfiler;
#X obj 1850 1988 dac~;
#X obj 1791 1931 *~;
#X obj 2084 1512 vsl 15 512 0 1 0 0 empty empty empty 0 -9 0 10 -262144
-1 -1 18700 1;
#X obj 962 979 vsl 15 512 0 127 0 0 empty empty speed_multiple -2 -8
0 10 -262144 -1 -1 7303 1;
#X obj 95 5 hsl 1600 60 0 127 0 0 empty empty empty -2 -8 0 10 -204786
-262144 -1 28874 1;
#X obj 1634 1831 env~;
#X floatatom 1634 1854 5 0 0 0 - - -;
#X obj 1675 1811 *~ 1;
#X obj 95 65 hsl 1600 60 0 127 0 0 empty empty empty -2 -8 0 10 -204786
-1 -1 28874 1;
#X obj 95 125 hsl 1600 60 0 127 0 0 empty empty empty -2 -8 0 10 -204786
-1 -1 28874 1;
#X obj 13 97 r pos_2nd;
#X obj 7 155 r pos_3rd;
#N canvas 0 22 450 278 (subpatch) 0;
#X array l 905215 float 2;
#X coords 0 1 905215 -1 1600 180 1 0 0;
#X restore 92 5 graph;
#X obj 5 40 r pos_1st;
#X text 139 383 load soundfile in array;
#X text 124 384 1;
#X obj 95 192 hsl 1600 60 0 127 0 0 empty empty empty -2 -8 0 10 -204786
-262144 -1 83455 1;
#X obj 95 252 hsl 1600 60 0 127 0 0 empty empty empty -2 -8 0 10 -204786
-1 -1 83455 1;
#X obj 95 312 hsl 1600 60 0 127 0 0 empty empty empty -2 -8 0 10 -204786
-1 -1 83455 1;
#N canvas 0 22 450 278 (subpatch) 0;
#X array r 905215 float 2;
#X coords 0 1 905215 -1 1600 180 1 0 0;
#X restore 92 192 graph;
#X msg 1763 43 read -resize samples/sample1.wav l r;
#X msg 1764 63 read -resize samples/sample2.wav l r;
#X msg 1763 83 read -resize samples/sample3.wav l r;
#X msg 1763 103 read -resize samples/sample4.wav l r;
#X msg 2045 43 read -resize samples/sample5.wav l r;
#X msg 2045 63 read -resize samples/sample6.wav l r;
#X msg 2045 83 read -resize samples/sample7.wav l r;
#X obj 1904 1849 env~;
#X floatatom 1904 1872 5 0 0 0 - - -;
#X obj 1859 1826 *~ 1;
#X obj 1888 1932 *~;
#X msg 2375 40 read -resize samples/canadian_forest.wav l r;
#X obj 1491 554 oscparse;
#X obj 1491 576 list trim;
#X msg 1490 507 listen 8000;
#X obj 1491 532 netreceive -u -b 8000;
#X obj 1491 605 list trim;
#X text 2911 53 3;
#X text 2926 52 enable OSC;
#X msg 2045 102 read -resize samples/lung_sounds.wav r;
#X text 707 946 evl kubisch skalieren für spannung?;
#X obj 1489 626 route h0 h1 both;
#X obj 1745 173 bng 15 250 50 0 empty empty empty 17 7 0 10 -262144
-1 -1;
#X obj 1662 1782 +~;
#X obj 1877 1797 +~;
#X text 2604 994 Set Parameters;
#X obj 2604 1035 vsl 15 512 0 127 0 0 empty empty start_position2 -2
-8 0 10 -262144 -1 -1 26670 1;
#X obj 2795 1025 vsl 15 512 0 -127 0 0 empty empty grain_spread2 -2
-8 0 10 -262144 -1 -1 0 1;
#X obj 2986 1035 vsl 15 512 0 127 0 0 empty empty spatial_spread2 -2
-8 0 10 -262144 -1 -1 18786 1;
#X obj 3177 1035 vsl 15 512 0 127 0 0 empty empty grain_length2 -2
-8 0 10 -262144 -1 -1 8074 1;
#X obj 3385 1036 vsl 15 512 0 127 0 0 empty empty speed_multiple2 -2
-8 0 10 -262144 -1 -1 7303 1;
#X text 3130 1003 evl kubisch skalieren für spannung?;
#X obj 5 227 r pos_1st2;
#X obj 13 284 r pos_2nd2;
#X obj 7 342 r pos_3rd2;
#X msg 1915 192 1000;
#X obj 1172 1767 *~;
#X obj 1222 956 vsl 15 512 0 1 0 0 empty empty volume 0 -9 0 10 -262144
-1 -1 0 1;
#X obj 1278 1758 *~;
#X obj 2395 1737 *~;
#X obj 3640 1055 vsl 15 512 0 1 0 0 empty empty volume 0 -9 0 10 -262144
-1 -1 0 1;
#X obj 2430 1738 *~;
#X obj 3707 977 delay 1 1 sec;
#X msg 3614 976 1 1000;
#X obj 3614 999 line 0 20;
#X msg 3696 1000 0 3000;
#X obj 1315 894 delay 1 1 sec;
#X msg 1222 893 1 1000;
#X obj 1222 916 line 0 20;
#X msg 1304 917 0 3000;
#X obj 1791 1954 *~ 1.5;
#X obj 1888 1955 *~ 1.5;
#X msg 2376 95 read -resize samples/glockenspiel.wav l r;
#X msg 2375 58 read -resize samples/flutes.wav l r;
#X msg 2376 76 read -resize samples/voice.wav l r;
#X msg 2376 114 read -resize samples/organ.wav l r;
#X msg 2376 133 read -resize samples/harp.wav l r;
#N canvas 0 25 1640 725 logik_left 0;
#X obj 333 146 route x y;
#X obj 333 192 line;
#X obj 332 323 spigot;
#X obj 356 304 tgl 15 0 empty empty empty 17 7 0 10 -262144 -1 -1 1
1;
#X floatatom 330 387 5 0 0 0 - - -;
#X obj 333 260 int;
#X floatatom 333 283 5 0 127 0 - - -;
#X obj 333 237 * 128;
#X obj 335 216 hsl 20 15 0 1 0 0 empty empty empty -2 -8 0 10 -262144
-1 -1 403 1;
#X msg 382 169 \$1 50;
#X obj 382 192 line;
#X obj 381 323 spigot;
#X obj 405 304 tgl 15 0 empty empty empty 17 7 0 10 -262144 -1 -1 1
1;
#X floatatom 381 346 5 0 0 0 - - -;
#X obj 382 260 int;
#X floatatom 382 283 5 0 127 0 - - -;
#X obj 382 237 * 128;
#X obj 384 216 hsl 20 15 0 1 0 0 empty empty empty -2 -8 0 10 -262144
-1 -1 1642 1;
#X obj 436 145 route x y;
#X obj 436 191 line;
#X obj 435 322 spigot;
#X obj 459 303 tgl 15 0 empty empty empty 17 7 0 10 -262144 -1 -1 1
1;
#X floatatom 435 345 5 0 0 0 - - -;
#X floatatom 436 282 5 0 127 0 - - -;
#X obj 436 236 * 128;
#X obj 438 215 hsl 20 15 0 1 0 0 empty empty empty -2 -8 0 10 -262144
-1 -1 340 1;
#X obj 486 190 line;
#X obj 485 321 spigot;
#X obj 509 302 tgl 15 0 empty empty empty 17 7 0 10 -262144 -1 -1 1
1;
#X floatatom 485 344 5 0 0 0 - - -;
#X obj 486 258 int;
#X floatatom 486 281 5 0 127 0 - - -;
#X obj 486 235 * 128;
#X obj 488 214 hsl 20 15 0 1 0 0 empty empty empty -2 -8 0 10 -262144
-1 -1 1058 1;
#X obj 538 144 route x y;
#X msg 538 167 \$1 50;
#X obj 538 190 line;
#X obj 537 321 spigot;
#X obj 561 302 tgl 15 0 empty empty empty 17 7 0 10 -262144 -1 -1 1
1;
#X floatatom 537 344 5 0 0 0 - - -;
#X obj 538 258 int;
#X floatatom 538 281 5 0 127 0 - - -;
#X obj 538 235 * 128;
#X obj 540 214 hsl 20 15 0 1 0 0 empty empty empty -2 -8 0 10 -262144
-1 -1 59 1;
#X msg 589 167 \$1 50;
#X obj 589 190 line;
#X obj 588 321 spigot;
#X obj 612 302 tgl 15 0 empty empty empty 17 7 0 10 -262144 -1 -1 1
1;
#X floatatom 588 344 5 0 0 0 - - -;
#X obj 589 258 int;
#X floatatom 589 281 5 0 127 0 - - -;
#X obj 589 235 * 128;
#X obj 591 214 hsl 20 15 0 1 0 0 empty empty empty -2 -8 0 10 -262144
-1 -1 1341 1;
#X obj 335 120 route f0 f1 f2 dist_ti dist_ip dist_pt, f 66;
#X obj 655 198 line;
#X obj 653 351 spigot;
#X obj 677 332 tgl 15 0 empty empty empty 17 7 0 10 -262144 -1 -1 1
1;
#X floatatom 653 374 5 0 0 0 - - -;
#X floatatom 654 310 5 0 127 0 - - -;
#X obj 657 222 hsl 20 15 0 1 0 0 empty empty empty -2 -8 0 10 -262144
-1 -1 1900 1;
#X obj 704 198 line;
#X obj 702 351 spigot;
#X obj 726 332 tgl 15 0 empty empty empty 17 7 0 10 -262144 -1 -1 1
1;
#X floatatom 702 374 5 0 0 0 - - -;
#X floatatom 703 311 5 0 127 0 - - -;
#X obj 706 222 hsl 20 15 0 1 0 0 empty empty empty -2 -8 0 10 -262144
-1 -1 1900 1;
#X obj 758 197 line;
#X obj 756 350 spigot;
#X obj 780 331 tgl 15 0 empty empty empty 17 7 0 10 -262144 -1 -1 1
1;
#X floatatom 756 373 5 0 0 0 - - -;
#X floatatom 757 310 5 0 127 0 - - -;
#X obj 760 221 hsl 20 15 0 1 0 0 empty empty empty -2 -8 0 10 -262144
-1 -1 1900 1;
#X obj 832 122 tgl 15 0 empty empty empty 17 7 0 10 -262144 -1 -1 1
1;
#X msg 655 175 \$1 500;
#X obj 655 243 / 4;
#X obj 704 243 / 6;
#X msg 704 175 \$1 500;
#X msg 758 174 \$1 500;
#X obj 758 242 / 4;
#X obj 655 266 + 10;
#X msg 333 169 \$1 1;
#X obj 336 76 inlet;
#X obj 831 67 inlet;
#X obj 386 436 outlet;
#X obj 329 435 outlet;
#X obj 440 435 outlet;
#X obj 551 437 outlet;
#X obj 494 436 outlet;
#X obj 605 436 outlet;
#X obj 717 437 outlet;
#X obj 660 436 outlet;
#X obj 771 436 outlet;
#X msg 436 168 \$1 50;
#X msg 488 167 \$1 50;
#X connect 0 0 80 0;
#X connect 0 1 9 0;
#X connect 1 0 8 0;
#X connect 2 0 4 0;
#X connect 3 0 2 1;
#X connect 4 0 84 0;
#X connect 5 0 6 0;
#X connect 6 0 2 0;
#X connect 7 0 5 0;
#X connect 8 0 7 0;
#X connect 9 0 10 0;
#X connect 10 0 17 0;
#X connect 11 0 13 0;
#X connect 12 0 11 1;
#X connect 13 0 83 0;
#X connect 14 0 15 0;
#X connect 15 0 11 0;
#X connect 16 0 14 0;
#X connect 17 0 16 0;
#X connect 18 0 92 0;
#X connect 18 1 93 0;
#X connect 19 0 25 0;
#X connect 20 0 22 0;
#X connect 21 0 20 1;
#X connect 22 0 85 0;
#X connect 23 0 20 0;
#X connect 24 0 23 0;
#X connect 25 0 24 0;
#X connect 26 0 33 0;
#X connect 27 0 29 0;
#X connect 28 0 27 1;
#X connect 29 0 87 0;
#X connect 30 0 31 0;
#X connect 31 0 27 0;
#X connect 32 0 30 0;
#X connect 33 0 32 0;
#X connect 34 0 35 0;
#X connect 34 1 44 0;
#X connect 35 0 36 0;
#X connect 36 0 43 0;
#X connect 37 0 39 0;
#X connect 38 0 37 1;
#X connect 39 0 86 0;
#X connect 40 0 41 0;
#X connect 41 0 37 0;
#X connect 42 0 40 0;
#X connect 43 0 42 0;
#X connect 44 0 45 0;
#X connect 45 0 52 0;
#X connect 46 0 48 0;
#X connect 47 0 46 1;
#X connect 48 0 88 0;
#X connect 49 0 50 0;
#X connect 50 0 46 0;
#X connect 51 0 49 0;
#X connect 52 0 51 0;
#X connect 53 0 0 0;
#X connect 53 1 18 0;
#X connect 53 2 34 0;
#X connect 53 3 73 0;
#X connect 53 4 76 0;
#X connect 53 5 77 0;
#X connect 54 0 59 0;
#X connect 55 0 57 0;
#X connect 56 0 55 1;
#X connect 57 0 90 0;
#X connect 58 0 55 0;
#X connect 59 0 74 0;
#X connect 60 0 65 0;
#X connect 61 0 63 0;
#X connect 62 0 61 1;
#X connect 63 0 89 0;
#X connect 64 0 61 0;
#X connect 65 0 75 0;
#X connect 66 0 71 0;
#X connect 67 0 69 0;
#X connect 68 0 67 1;
#X connect 69 0 91 0;
#X connect 70 0 67 0;
#X connect 71 0 78 0;
#X connect 72 0 3 0;
#X connect 72 0 12 0;
#X connect 72 0 21 0;
#X connect 72 0 28 0;
#X connect 72 0 38 0;
#X connect 72 0 47 0;
#X connect 72 0 56 0;
#X connect 72 0 62 0;
#X connect 72 0 68 0;
#X connect 73 0 54 0;
#X connect 74 0 79 0;
#X connect 75 0 64 0;
#X connect 76 0 60 0;
#X connect 77 0 66 0;
#X connect 78 0 70 0;
#X connect 79 0 58 0;
#X connect 80 0 1 0;
#X connect 81 0 53 0;
#X connect 82 0 72 0;
#X connect 92 0 19 0;
#X connect 93 0 26 0;
#X restore 195 724 pd logik_left;
#X f 130;
#N canvas 0 25 3278 1408 logik_right 0;
#X obj 145 425 route x y;
#X obj 145 471 line;
#X obj 144 602 spigot;
#X obj 168 583 tgl 15 0 empty empty empty 17 7 0 10 -262144 -1 -1 1
1;
#X floatatom 142 666 5 0 0 0 - - -;
#X obj 145 539 int;
#X floatatom 145 562 5 0 127 0 - - -;
#X obj 145 516 * 128;
#X obj 147 495 hsl 20 15 0 1 0 0 empty empty empty -2 -8 0 10 -262144
-1 -1 945 1;
#X msg 194 448 \$1 50;
#X obj 194 471 line;
#X obj 193 602 spigot;
#X obj 217 583 tgl 15 0 empty empty empty 17 7 0 10 -262144 -1 -1 1
1;
#X floatatom 193 625 5 0 0 0 - - -;
#X obj 194 539 int;
#X floatatom 194 562 5 0 127 0 - - -;
#X obj 194 516 * 128;
#X obj 196 495 hsl 20 15 0 1 0 0 empty empty empty -2 -8 0 10 -262144
-1 -1 1752 1;
#X obj 248 424 route x y;
#X obj 248 470 line;
#X obj 247 601 spigot;
#X obj 271 582 tgl 15 0 empty empty empty 17 7 0 10 -262144 -1 -1 1
1;
#X floatatom 247 624 5 0 0 0 - - -;
#X floatatom 248 561 5 0 127 0 - - -;
#X obj 248 515 * 128;
#X obj 250 494 hsl 20 15 0 1 0 0 empty empty empty -2 -8 0 10 -262144
-1 -1 984 1;
#X obj 298 469 line;
#X obj 297 600 spigot;
#X obj 321 581 tgl 15 0 empty empty empty 17 7 0 10 -262144 -1 -1 1
1;
#X floatatom 297 623 5 0 0 0 - - -;
#X obj 298 537 int;
#X floatatom 298 560 5 0 127 0 - - -;
#X obj 298 514 * 128;
#X obj 300 493 hsl 20 15 0 1 0 0 empty empty empty -2 -8 0 10 -262144
-1 -1 1768 1;
#X obj 350 423 route x y;
#X msg 350 446 \$1 50;
#X obj 350 469 line;
#X obj 349 600 spigot;
#X obj 373 581 tgl 15 0 empty empty empty 17 7 0 10 -262144 -1 -1 1
1;
#X floatatom 349 623 5 0 0 0 - - -;
#X obj 350 537 int;
#X floatatom 350 560 5 0 127 0 - - -;
#X obj 350 514 * 128;
#X obj 352 493 hsl 20 15 0 1 0 0 empty empty empty -2 -8 0 10 -262144
-1 -1 1125 1;
#X msg 401 446 \$1 50;
#X obj 401 469 line;
#X obj 400 600 spigot;
#X obj 424 581 tgl 15 0 empty empty empty 17 7 0 10 -262144 -1 -1 1
1;
#X floatatom 400 623 5 0 0 0 - - -;
#X obj 401 537 int;
#X floatatom 401 560 5 0 127 0 - - -;
#X obj 401 514 * 128;
#X obj 403 493 hsl 20 15 0 1 0 0 empty empty empty -2 -8 0 10 -262144
-1 -1 1833 1;
#X obj 147 399 route f0 f1 f2 dist_ti dist_ip dist_pt, f 66;
#X obj 467 477 line;
#X obj 465 630 spigot;
#X obj 489 611 tgl 15 0 empty empty empty 17 7 0 10 -262144 -1 -1 1
1;
#X floatatom 465 653 5 0 0 0 - - -;
#X floatatom 466 589 5 0 127 0 - - -;
#X obj 469 501 hsl 20 15 0 1 0 0 empty empty empty -2 -8 0 10 -262144
-1 -1 1900 1;
#X obj 516 477 line;
#X obj 514 630 spigot;
#X obj 538 611 tgl 15 0 empty empty empty 17 7 0 10 -262144 -1 -1 1
1;
#X floatatom 514 653 5 0 0 0 - - -;
#X floatatom 515 590 5 0 127 0 - - -;
#X obj 518 501 hsl 20 15 0 1 0 0 empty empty empty -2 -8 0 10 -262144
-1 -1 1900 1;
#X obj 570 476 line;
#X obj 568 629 spigot;
#X obj 592 610 tgl 15 0 empty empty empty 17 7 0 10 -262144 -1 -1 1
1;
#X floatatom 568 652 5 0 0 0 - - -;
#X floatatom 569 589 5 0 127 0 - - -;
#X obj 572 500 hsl 20 15 0 1 0 0 empty empty empty -2 -8 0 10 -262144
-1 -1 1900 1;
#X obj 595 357 tgl 15 0 empty empty empty 17 7 0 10 -262144 -1 -1 1
1;
#X msg 467 454 \$1 500;
#X obj 467 522 / 4;
#X obj 516 522 / 6;
#X msg 516 454 \$1 500;
#X msg 570 453 \$1 500;
#X obj 570 521 / 4;
#X obj 467 545 + 10;
#X msg 145 448 \$1 5;
#X obj 145 325 inlet;
#X obj 591 328 inlet;
#X obj 139 708 outlet;
#X obj 188 711 outlet;
#X obj 236 722 outlet;
#X obj 289 719 outlet;
#X obj 338 722 outlet;
#X obj 386 733 outlet;
#X obj 455 713 outlet;
#X obj 504 716 outlet;
#X obj 552 727 outlet;
#X msg 248 447 \$1 50;
#X msg 298 446 \$1 50;
#X connect 0 0 80 0;
#X connect 0 1 9 0;
#X connect 1 0 8 0;
#X connect 2 0 4 0;
#X connect 3 0 2 1;
#X connect 4 0 83 0;
#X connect 5 0 6 0;
#X connect 6 0 2 0;
#X connect 7 0 5 0;
#X connect 8 0 7 0;
#X connect 9 0 10 0;
#X connect 10 0 17 0;
#X connect 11 0 13 0;
#X connect 12 0 11 1;
#X connect 13 0 84 0;
#X connect 14 0 15 0;
#X connect 15 0 11 0;
#X connect 16 0 14 0;
#X connect 17 0 16 0;
#X connect 18 0 92 0;
#X connect 18 1 93 0;
#X connect 19 0 25 0;
#X connect 20 0 22 0;
#X connect 21 0 20 1;
#X connect 22 0 85 0;
#X connect 23 0 20 0;
#X connect 24 0 23 0;
#X connect 25 0 24 0;
#X connect 26 0 33 0;
#X connect 27 0 29 0;
#X connect 28 0 27 1;
#X connect 29 0 86 0;
#X connect 30 0 31 0;
#X connect 31 0 27 0;
#X connect 32 0 30 0;
#X connect 33 0 32 0;
#X connect 34 0 35 0;
#X connect 34 1 44 0;
#X connect 35 0 36 0;
#X connect 36 0 43 0;
#X connect 37 0 39 0;
#X connect 38 0 37 1;
#X connect 39 0 87 0;
#X connect 40 0 41 0;
#X connect 41 0 37 0;
#X connect 42 0 40 0;
#X connect 43 0 42 0;
#X connect 44 0 45 0;
#X connect 45 0 52 0;
#X connect 46 0 48 0;
#X connect 47 0 46 1;
#X connect 48 0 88 0;
#X connect 49 0 50 0;
#X connect 50 0 46 0;
#X connect 51 0 49 0;
#X connect 52 0 51 0;
#X connect 53 0 0 0;
#X connect 53 1 18 0;
#X connect 53 2 34 0;
#X connect 53 3 73 0;
#X connect 53 4 76 0;
#X connect 53 5 77 0;
#X connect 54 0 59 0;
#X connect 55 0 57 0;
#X connect 56 0 55 1;
#X connect 57 0 89 0;
#X connect 58 0 55 0;
#X connect 59 0 74 0;
#X connect 60 0 65 0;
#X connect 61 0 63 0;
#X connect 62 0 61 1;
#X connect 63 0 90 0;
#X connect 64 0 61 0;
#X connect 65 0 75 0;
#X connect 66 0 71 0;
#X connect 67 0 69 0;
#X connect 68 0 67 1;
#X connect 69 0 91 0;
#X connect 70 0 67 0;
#X connect 71 0 78 0;
#X connect 72 0 3 0;
#X connect 72 0 12 0;
#X connect 72 0 21 0;
#X connect 72 0 28 0;
#X connect 72 0 38 0;
#X connect 72 0 47 0;
#X connect 72 0 56 0;
#X connect 72 0 62 0;
#X connect 72 0 68 0;
#X connect 73 0 54 0;
#X connect 74 0 79 0;
#X connect 75 0 64 0;
#X connect 76 0 60 0;
#X connect 77 0 66 0;
#X connect 78 0 70 0;
#X connect 79 0 58 0;
#X connect 80 0 1 0;
#X connect 81 0 53 0;
#X connect 82 0 72 0;
#X connect 92 0 19 0;
#X connect 93 0 26 0;
#X restore 2685 793 pd logik_right;
#X f 104;
#X obj 1376 1722 r vol_grain1;
#N canvas 0 25 1297 974 synth_left 0;
#X obj 757 839 s pos_3rd;
#X obj 1019 840 s pos_2nd;
#X obj 399 709 r grain_length_samples;
#X obj 103 708 r sr;
#X obj 142 708 r grain_length_samples;
#X obj 570 707 r start_position_samples;
#X obj 311 709 r len_array;
#X obj 757 707 r grain_spread_samples;
#X obj 928 704 r grain_spatial_spread;
#X obj 1065 741 r multiplier;
#X obj 345 791 supergrain, f 68;
#X floatatom 1071 773 5 0 0 0 - - -;
#X obj 341 833 outlet~;
#X obj 506 832 outlet~;
#X obj 785 295 int;
#X floatatom 785 324 5 0 0 3 grain_length_samples - grain_length_samples
;
#X obj 785 227 / 127;
#X obj 114 227 / 127;
#X obj 114 250 *;
#X obj 143 250 r len_array;
#X obj 114 273 int;
#X floatatom 114 296 10 0 0 3 start_position_samples - start_position_samples
;
#X obj 785 520 /;
#X obj 807 480 r sr;
#X floatatom 785 543 5 0 0 3 grain_length_sec - grain_length_sec;
#X obj 785 249 0;
#X obj 114 526 /;
#X obj 130 486 r sr;
#X floatatom 114 549 5 0 0 3 start_position_sec - start_position_sec
;
#X obj 394 265 / 127;
#X obj 394 288 *;
#X obj 394 311 int;
#X floatatom 394 334 15 0 0 3 grain_spread_samples - grain_spread_samples
;
#X obj 394 441 /;
#X obj 412 399 r sr;
#X floatatom 394 464 5 0 0 3 grain_spread_sec - grain_spread_sec;
#X obj 611 240 / 127;
#X floatatom 611 288 5 0 0 3 grain_spatial_spread - grain_spatial_spread
;
#X obj 611 263 * 1;
#X obj 786 455 r grain_length_samples;
#X obj 400 233 r max_grain_spread_samples;
#X obj 394 420 r grain_spread_samples;
#X obj 114 463 r start_position_samples;
#X floatatom 991 387 5 0 0 1 multiplier - multiplier;
#X obj 986 287 t b f;
#X floatatom 1015 316 5 0 0 0 - - -;
#X msg 983 316 1;
#X obj 983 339 /;
#X obj 978 230 * 7;
#X obj 978 207 / 127;
#X obj 131 344 s pos_1st;
#X obj 983 362 expr round($f1*1000)/1000;
#X obj 785 272 * 20500;
#X obj 1147 238 s vol_grain1;
#X obj 157 182 inlet;
#X obj 393 194 inlet;
#X obj 611 200 inlet;
#X obj 790 196 inlet;
#X obj 974 184 inlet;
#X obj 1143 206 inlet;
#X connect 2 0 10 3;
#X connect 3 0 10 0;
#X connect 4 0 10 1;
#X connect 5 0 10 4;
#X connect 6 0 10 2;
#X connect 7 0 10 5;
#X connect 8 0 10 6;
#X connect 9 0 10 7;
#X connect 9 0 11 0;
#X connect 10 0 12 0;
#X connect 10 1 13 0;
#X connect 10 2 0 0;
#X connect 10 3 1 0;
#X connect 14 0 15 0;
#X connect 16 0 25 0;
#X connect 17 0 18 0;
#X connect 18 0 20 0;
#X connect 19 0 18 1;
#X connect 20 0 21 0;
#X connect 22 0 24 0;
#X connect 23 0 22 1;
#X connect 25 0 52 0;
#X connect 26 0 28 0;
#X connect 27 0 26 1;
#X connect 29 0 30 0;
#X connect 30 0 31 0;
#X connect 31 0 32 0;
#X connect 33 0 35 0;
#X connect 34 0 33 1;
#X connect 36 0 38 0;
#X connect 38 0 37 0;
#X connect 39 0 22 0;
#X connect 40 0 30 1;
#X connect 41 0 33 0;
#X connect 42 0 26 0;
#X connect 44 0 46 0;
#X connect 44 1 45 0;
#X connect 45 0 47 1;
#X connect 46 0 47 0;
#X connect 47 0 51 0;
#X connect 48 0 44 0;
#X connect 49 0 48 0;
#X connect 51 0 43 0;
#X connect 52 0 14 0;
#X connect 54 0 17 0;
#X connect 54 0 50 0;
#X connect 55 0 29 0;
#X connect 56 0 36 0;
#X connect 57 0 16 0;
#X connect 58 0 49 0;
#X connect 59 0 53 0;
#X restore 152 1552 pd synth_left;
#X f 160;
#X msg 2100 162 18.15;
#X msg 2100 183 36.3;
#X obj 2101 217 s speed;
#X obj 968 928 r speed;
#X obj 3395 978 r speed;
#X obj 2374 1687 r vol_grain2;
#N canvas 0 25 1747 1439 synth_right 0;
#X obj 161 1066 r sr;
#X obj 369 1067 r len_array;
#X obj 403 1149 supergrain, f 68;
#X obj 200 1066 r grain_length_samples2;
#X obj 457 1067 r grain_length_samples2;
#X obj 628 1065 r start_position_samples2;
#X obj 815 1065 r grain_spread_samples2;
#X obj 986 1062 r grain_spatial_spread2;
#X obj 1123 1099 r multiplier2;
#X obj 1077 1198 s pos_2nd2;
#X obj 815 1197 s pos_3rd2;
#X floatatom 1130 1135 5 0 0 0 - - -;
#X obj 396 1206 outlet~;
#X obj 560 1211 outlet~;
#X obj 925 478 int;
#X obj 925 410 / 127;
#X obj 226 389 / 127;
#X obj 226 412 *;
#X obj 255 412 r len_array;
#X obj 226 435 int;
#X obj 884 674 /;
#X obj 906 634 r sr;
#X obj 925 432 0;
#X obj 226 688 /;
#X obj 242 648 r sr;
#X obj 507 456 / 127;
#X obj 507 479 *;
#X obj 507 502 int;
#X obj 507 632 /;
#X obj 525 590 r sr;
#X obj 739 457 / 127;
#X obj 739 480 * 1;
#X obj 513 424 r max_grain_spread_samples;
#X obj 1135 544 t b f;
#X floatatom 1169 579 5 0 0 0 - - -;
#X msg 1132 573 1;
#X obj 1132 596 /;
#X obj 1127 487 * 7;
#X obj 1127 464 / 127;
#X obj 1132 619 expr round($f1*1000)/1000;
#X obj 925 455 * 20500;
#X obj 243 506 s pos_1st2;
#X obj 226 625 r start_position_samples2;
#X obj 507 611 r grain_spread_samples2;
#X obj 885 609 r grain_length_samples2;
#X floatatom 1132 642 5 0 0 1 multiplier2 - multiplier2;
#X floatatom 925 501 5 0 0 1 grain_length_samples2 - grain_length_samples2
;
#X floatatom 884 697 5 0 0 1 grain_length_sec2 - grain_length_sec2
;
#X floatatom 739 503 5 0 0 1 grain_spatial_spread2 - grain_spatial_spread2
;
#X floatatom 507 525 5 0 0 1 grain_spread_samples2 - grain_spread_samples2
;
#X floatatom 507 655 5 0 0 1 grain_spread_sec2 - grain_spread_sec2
;
#X floatatom 226 711 5 0 0 1 start_position_sec2 - start_position_sec2
;
#X floatatom 226 458 15 0 0 1 start_position_samples2 - start_position_samples2
;
#X obj 1226 422 s vol_grain2;
#X obj 1225 392 inlet;
#X obj 214 356 inlet;
#X obj 502 384 inlet;
#X obj 716 392 inlet;
#X obj 924 382 inlet;
#X obj 1104 388 inlet;
#X connect 0 0 2 0;
#X connect 1 0 2 2;
#X connect 2 0 12 0;
#X connect 2 1 13 0;
#X connect 2 2 10 0;
#X connect 2 3 9 0;
#X connect 3 0 2 1;
#X connect 4 0 2 3;
#X connect 5 0 2 4;
#X connect 6 0 2 5;
#X connect 7 0 2 6;
#X connect 8 0 2 7;
#X connect 8 0 11 0;
#X connect 14 0 46 0;
#X connect 15 0 22 0;
#X connect 16 0 17 0;
#X connect 17 0 19 0;
#X connect 18 0 17 1;
#X connect 19 0 52 0;
#X connect 20 0 47 0;
#X connect 21 0 20 1;
#X connect 22 0 40 0;
#X connect 23 0 51 0;
#X connect 24 0 23 1;
#X connect 25 0 26 0;
#X connect 26 0 27 0;
#X connect 27 0 49 0;
#X connect 28 0 50 0;
#X connect 29 0 28 1;
#X connect 30 0 31 0;
#X connect 31 0 48 0;
#X connect 32 0 26 1;
#X connect 33 0 35 0;
#X connect 33 1 34 0;
#X connect 34 0 36 1;
#X connect 35 0 36 0;
#X connect 36 0 39 0;
#X connect 37 0 33 0;
#X connect 38 0 37 0;
#X connect 39 0 45 0;
#X connect 40 0 14 0;
#X connect 42 0 23 0;
#X connect 43 0 28 0;
#X connect 44 0 20 0;
#X connect 54 0 53 0;
#X connect 55 0 16 0;
#X connect 55 0 41 0;
#X connect 56 0 25 0;
#X connect 57 0 30 0;
#X connect 58 0 15 0;
#X connect 59 0 38 0;
#X restore 2428 1616 pd synth_right;
#X f 178;
#X obj 1105 705 tgl 15 0 empty empty empty 17 7 0 10 -262144 -1 -1
1 1;
#X obj 1106 679 r all_on;
#X obj 3390 759 tgl 15 0 empty empty empty 17 7 0 10 -262144 -1 -1
1 1;
#X obj 3391 733 r all_on;
#X obj 2352 238 tgl 15 0 empty empty empty 17 7 0 10 -262144 -1 -1
1 1;
#X obj 2351 274 s all_on;
#X obj 1942 150 bang;
#X connect 4 0 98 0;
#X connect 5 0 98 1;
#X connect 6 0 98 2;
#X connect 7 0 98 3;
#X connect 9 0 8 0;
#X connect 10 0 11 0;
#X connect 13 0 14 0;
#X connect 14 0 16 0;
#X connect 15 0 14 1;
#X connect 17 0 9 0;
#X connect 17 0 112 0;
#X connect 19 0 88 0;
#X connect 20 0 19 1;
#X connect 20 0 48 1;
#X connect 21 0 98 4;
#X connect 23 0 24 0;
#X connect 25 0 23 0;
#X connect 25 0 19 0;
#X connect 28 0 26 0;
#X connect 29 0 27 0;
#X connect 31 0 22 0;
#X connect 38 0 17 0;
#X connect 39 0 17 0;
#X connect 40 0 17 0;
#X connect 41 0 17 0;
#X connect 42 0 17 0;
#X connect 43 0 17 0;
#X connect 44 0 17 0;
#X connect 45 0 46 0;
#X connect 47 0 45 0;
#X connect 47 0 48 0;
#X connect 48 0 89 0;
#X connect 49 0 17 0;
#X connect 50 0 51 0;
#X connect 51 0 54 0;
#X connect 52 0 53 0;
#X connect 53 0 50 0;
#X connect 54 0 59 0;
#X connect 57 0 17 0;
#X connect 59 0 95 0;
#X connect 59 1 96 0;
#X connect 60 0 9 0;
#X connect 61 0 25 0;
#X connect 62 0 47 0;
#X connect 64 0 105 0;
#X connect 65 0 105 1;
#X connect 66 0 105 2;
#X connect 67 0 105 3;
#X connect 68 0 105 4;
#X connect 70 0 34 0;
#X connect 71 0 35 0;
#X connect 72 0 36 0;
#X connect 73 0 12 0;
#X connect 74 0 61 0;
#X connect 75 0 98 5;
#X connect 76 0 62 0;
#X connect 77 0 61 0;
#X connect 78 0 105 5;
#X connect 79 0 62 0;
#X connect 80 0 83 0;
#X connect 81 0 80 0;
#X connect 81 0 82 0;
#X connect 82 0 78 0;
#X connect 83 0 82 0;
#X connect 84 0 87 0;
#X connect 85 0 84 0;
#X connect 85 0 86 0;
#X connect 86 0 75 0;
#X connect 87 0 86 0;
#X connect 88 0 18 0;
#X connect 89 0 18 1;
#X connect 90 0 17 0;
#X connect 91 0 17 0;
#X connect 92 0 17 0;
#X connect 93 0 17 0;
#X connect 94 0 17 0;
#X connect 95 0 85 0;
#X connect 95 2 4 0;
#X connect 95 6 7 0;
#X connect 95 8 6 0;
#X connect 96 0 81 0;
#X connect 96 2 64 0;
#X connect 96 6 67 0;
#X connect 96 8 66 0;
#X connect 97 0 74 1;
#X connect 97 0 76 1;
#X connect 98 0 74 0;
#X connect 98 1 76 0;
#X connect 99 0 101 0;
#X connect 100 0 101 0;
#X connect 102 0 21 0;
#X connect 103 0 68 0;
#X connect 104 0 77 1;
#X connect 104 0 79 1;
#X connect 105 0 77 0;
#X connect 105 1 79 1;
#X connect 106 0 95 1;
#X connect 107 0 106 0;
#X connect 108 0 96 1;
#X connect 109 0 108 0;
#X connect 110 0 111 0;
#X connect 112 0 10 0;
#X connect 112 0 73 0;
#X connect 112 0 99 0;
