#N canvas 626 25 3202 2107 12;
#X text 34 -18 load soundfile in array;
#X text 10 -17 1;
#X obj 108 1377 vsl 15 512 0 127 0 0 empty empty start_position -2
-8 0 10 -204786 -1 -1 16850 1;
#X obj 256 1377 vsl 15 512 0 -127 0 0 empty empty grain_spread -2 -8
0 10 -204786 -1 -1 2100 1;
#X obj 404 1377 vsl 15 512 0 127 0 0 empty empty spatial_spread -2
-8 0 10 -204786 -1 -1 14043 1;
#X obj 552 1377 vsl 15 512 0 127 0 0 empty empty grain_length -2 -8
0 10 -204786 -1 -1 14243 1;
#X obj 1763 215 s len_array;
#X floatatom 1763 193 10 0 0 0 - - -;
#X msg 1863 192 41000;
#X obj 1863 215 s sr;
#X obj 1915 215 s max_grain_spread_ms;
#X obj 1901 278 r max_grain_spread_ms;
#X obj 1901 301 expr $f1*$f2/1000;
#X obj 2030 303 r sr;
#X floatatom 1901 324 5 0 0 3 max_grain_spread_samples - max_grain_spread_samples
;
#X obj 1763 126 soundfiler;
#X obj 1219 1963 dac~;
#X obj 1195 1871 *~;
#X obj 1347 1400 vsl 15 512 0 1 0 0 empty empty empty 0 -9 0 10 -66577
-204786 -1 24200 1;
#X obj 700 1377 vsl 15 512 0 127 0 0 empty empty speed_multiple -2
-8 0 10 -204786 -1 -1 29211 1;
#X obj 95 5 hsl 1600 60 0 127 0 0 empty empty empty -2 -8 0 10 -204786
-262144 -1 52725 1;
#X obj 1152 1872 env~;
#X floatatom 1152 1895 5 0 0 0 - - -;
#X obj 1195 1836 *~ 1;
#X obj 95 65 hsl 1600 60 0 127 0 0 empty empty empty -2 -8 0 10 -204786
-1 -1 52546 1;
#X obj 95 125 hsl 1600 60 0 127 0 0 empty empty empty -2 -8 0 10 -204786
-1 -1 52366 1;
#X obj 13 97 r pos_2nd;
#X obj 7 155 r pos_3rd;
#N canvas 0 22 450 278 (subpatch) 0;
#X array l 749568 float 2;
#X coords 0 1 749568 -1 1600 180 1 0 0;
#X restore 92 5 graph;
#X obj 5 40 r pos_1st;
#X obj 95 192 hsl 1600 60 0 127 0 0 empty empty empty -2 -8 0 10 -204786
-262144 -1 43502 1;
#X obj 95 252 hsl 1600 60 0 127 0 0 empty empty empty -2 -8 0 10 -204786
-1 -1 43391 1;
#X obj 95 312 hsl 1600 60 0 127 0 0 empty empty empty -2 -8 0 10 -204786
-1 -1 43279 1;
#N canvas 0 22 450 278 (subpatch) 0;
#X array r 749568 float 2;
#X coords 0 1 749568 -1 1600 180 1 0 0;
#X restore 92 192 graph;
#X obj 1300 1873 env~;
#X floatatom 1300 1896 5 0 0 0 - - -;
#X obj 1252 1837 *~ 1;
#X obj 1250 1872 *~;
#X obj 1279 1156 oscparse;
#X obj 1279 1178 list trim;
#X msg 1278 1109 listen 8000;
#X obj 1279 1134 netreceive -u -b 8000;
#X obj 1279 1207 list trim;
#X obj 1277 1228 route h0 h1 both;
#X obj 1745 173 bng 15 250 50 0 empty empty empty 17 7 0 10 -262144
-1 -1;
#X obj 1195 1814 +~;
#X obj 1252 1816 +~;
#X obj 1740 1384 vsl 15 512 0 127 0 0 empty empty start_position2 -2
-8 0 10 -204786 -1 -1 13902 1;
#X obj 1888 1384 vsl 15 512 0 -127 0 0 empty empty grain_spread2 -2
-8 0 10 -204786 -1 -1 1300 1;
#X obj 2036 1384 vsl 15 512 0 127 0 0 empty empty spatial_spread2 -2
-8 0 10 -204786 -1 -1 12983 1;
#X obj 2184 1384 vsl 15 512 0 127 0 0 empty empty grain_length2 -2
-8 0 10 -204786 -1 -1 5435 1;
#X obj 2332 1384 vsl 15 512 0 127 0 0 empty empty speed_multiple2 -2
-8 0 10 -204786 -1 -1 29211 1;
#X obj 5 227 r pos_1st2;
#X obj 13 284 r pos_2nd2;
#X obj 7 342 r pos_3rd2;
#X msg 1915 192 1000;
#X obj 935 1914 *~;
#X obj 848 1377 vsl 15 512 0 1 0 0 empty empty volume 0 -9 0 10 -204786
-1 -1 0 1;
#X obj 970 1914 *~;
#X obj 1484 1908 *~;
#X obj 2480 1384 vsl 15 512 0 1 0 0 empty empty volume 0 -9 0 10 -204786
-1 -1 0 1;
#X obj 1519 1909 *~;
#X obj 2569 1307 delay 1 1 sec;
#X msg 2476 1306 1 1000;
#X obj 2476 1329 line 0 20;
#X msg 2558 1330 0 3000;
#X obj 941 1299 delay 1 1 sec;
#X msg 848 1298 1 1000;
#X obj 848 1321 line 0 20;
#X msg 930 1322 0 3000;
#X obj 1195 1894 *~ 1.5;
#X obj 1250 1895 *~ 1.5;
#N canvas 0 25 1640 725 logik_left 0;
#X obj 333 146 route x y;
#X obj 333 192 line;
#X obj 332 323 spigot;
#X obj 356 304 tgl 15 0 empty empty empty 17 7 0 10 -262144 -1 -1 1
1;
#X floatatom 330 387 5 0 0 0 - - -;
#X obj 333 260 int;
#X floatatom 333 283 5 0 127 0 - - -;
#X obj 333 237 * 128;
#X obj 335 216 hsl 20 15 0 1 0 0 empty empty empty -2 -8 0 10 -262144
-1 -1 633 1;
#X msg 382 169 \$1 50;
#X obj 382 192 line;
#X obj 381 323 spigot;
#X obj 405 304 tgl 15 0 empty empty empty 17 7 0 10 -262144 -1 -1 1
1;
#X floatatom 381 346 5 0 0 0 - - -;
#X obj 382 260 int;
#X floatatom 382 283 5 0 127 0 - - -;
#X obj 382 237 * 128;
#X obj 384 216 hsl 20 15 0 1 0 0 empty empty empty -2 -8 0 10 -262144
-1 -1 1900 1;
#X obj 436 145 route x y;
#X obj 436 191 line;
#X obj 435 322 spigot;
#X obj 459 303 tgl 15 0 empty empty empty 17 7 0 10 -262144 -1 -1 1
1;
#X floatatom 435 345 5 0 0 0 - - -;
#X floatatom 436 282 5 0 127 0 - - -;
#X obj 436 236 * 128;
#X obj 438 215 hsl 20 15 0 1 0 0 empty empty empty -2 -8 0 10 -262144
-1 -1 622 1;
#X obj 486 190 line;
#X obj 485 321 spigot;
#X obj 509 302 tgl 15 0 empty empty empty 17 7 0 10 -262144 -1 -1 1
1;
#X floatatom 485 344 5 0 0 0 - - -;
#X obj 486 258 int;
#X floatatom 486 281 5 0 127 0 - - -;
#X obj 486 235 * 128;
#X obj 488 214 hsl 20 15 0 1 0 0 empty empty empty -2 -8 0 10 -262144
-1 -1 1776 1;
#X obj 538 144 route x y;
#X msg 538 167 \$1 50;
#X obj 538 190 line;
#X obj 537 321 spigot;
#X obj 561 302 tgl 15 0 empty empty empty 17 7 0 10 -262144 -1 -1 1
1;
#X floatatom 537 344 5 0 0 0 - - -;
#X obj 538 258 int;
#X floatatom 538 281 5 0 127 0 - - -;
#X obj 538 235 * 128;
#X obj 540 214 hsl 20 15 0 1 0 0 empty empty empty -2 -8 0 10 -262144
-1 -1 516 1;
#X msg 589 167 \$1 50;
#X obj 589 190 line;
#X obj 588 321 spigot;
#X obj 612 302 tgl 15 0 empty empty empty 17 7 0 10 -262144 -1 -1 1
1;
#X floatatom 588 344 5 0 0 0 - - -;
#X obj 589 258 int;
#X floatatom 589 281 5 0 127 0 - - -;
#X obj 589 235 * 128;
#X obj 591 214 hsl 20 15 0 1 0 0 empty empty empty -2 -8 0 10 -262144
-1 -1 1825 1;
#X obj 335 120 route f0 f1 f2 dist_ti dist_ip dist_pt, f 66;
#X obj 655 198 line;
#X obj 653 351 spigot;
#X obj 677 332 tgl 15 0 empty empty empty 17 7 0 10 -262144 -1 -1 1
1;
#X floatatom 653 374 5 0 0 0 - - -;
#X floatatom 654 310 5 0 127 0 - - -;
#X obj 657 222 hsl 20 15 0 1 0 0 empty empty empty -2 -8 0 10 -262144
-1 -1 1900 1;
#X obj 704 198 line;
#X obj 702 351 spigot;
#X obj 726 332 tgl 15 0 empty empty empty 17 7 0 10 -262144 -1 -1 1
1;
#X floatatom 702 374 5 0 0 0 - - -;
#X floatatom 703 311 5 0 127 0 - - -;
#X obj 706 222 hsl 20 15 0 1 0 0 empty empty empty -2 -8 0 10 -262144
-1 -1 1900 1;
#X obj 758 197 line;
#X obj 756 350 spigot;
#X obj 780 331 tgl 15 0 empty empty empty 17 7 0 10 -262144 -1 -1 1
1;
#X floatatom 756 373 5 0 0 0 - - -;
#X floatatom 757 310 5 0 127 0 - - -;
#X obj 760 221 hsl 20 15 0 1 0 0 empty empty empty -2 -8 0 10 -262144
-1 -1 1900 1;
#X obj 832 122 tgl 15 0 empty empty empty 17 7 0 10 -262144 -1 -1 1
1;
#X msg 655 175 \$1 500;
#X obj 655 243 / 4;
#X obj 704 243 / 6;
#X msg 704 175 \$1 500;
#X msg 758 174 \$1 500;
#X obj 758 242 / 4;
#X obj 655 266 + 10;
#X msg 333 169 \$1 1;
#X obj 336 76 inlet;
#X obj 831 67 inlet;
#X obj 386 436 outlet;
#X obj 329 435 outlet;
#X obj 440 435 outlet;
#X obj 551 437 outlet;
#X obj 494 436 outlet;
#X obj 605 436 outlet;
#X obj 717 437 outlet;
#X obj 660 436 outlet;
#X obj 771 436 outlet;
#X msg 436 168 \$1 50;
#X msg 488 167 \$1 50;
#X connect 0 0 80 0;
#X connect 0 1 9 0;
#X connect 1 0 8 0;
#X connect 2 0 4 0;
#X connect 3 0 2 1;
#X connect 4 0 84 0;
#X connect 5 0 6 0;
#X connect 6 0 2 0;
#X connect 7 0 5 0;
#X connect 8 0 7 0;
#X connect 9 0 10 0;
#X connect 10 0 17 0;
#X connect 11 0 13 0;
#X connect 12 0 11 1;
#X connect 13 0 83 0;
#X connect 14 0 15 0;
#X connect 15 0 11 0;
#X connect 16 0 14 0;
#X connect 17 0 16 0;
#X connect 18 0 92 0;
#X connect 18 1 93 0;
#X connect 19 0 25 0;
#X connect 20 0 22 0;
#X connect 21 0 20 1;
#X connect 22 0 85 0;
#X connect 23 0 20 0;
#X connect 24 0 23 0;
#X connect 25 0 24 0;
#X connect 26 0 33 0;
#X connect 27 0 29 0;
#X connect 28 0 27 1;
#X connect 29 0 87 0;
#X connect 30 0 31 0;
#X connect 31 0 27 0;
#X connect 32 0 30 0;
#X connect 33 0 32 0;
#X connect 34 0 35 0;
#X connect 34 1 44 0;
#X connect 35 0 36 0;
#X connect 36 0 43 0;
#X connect 37 0 39 0;
#X connect 38 0 37 1;
#X connect 39 0 86 0;
#X connect 40 0 41 0;
#X connect 41 0 37 0;
#X connect 42 0 40 0;
#X connect 43 0 42 0;
#X connect 44 0 45 0;
#X connect 45 0 52 0;
#X connect 46 0 48 0;
#X connect 47 0 46 1;
#X connect 48 0 88 0;
#X connect 49 0 50 0;
#X connect 50 0 46 0;
#X connect 51 0 49 0;
#X connect 52 0 51 0;
#X connect 53 0 0 0;
#X connect 53 1 18 0;
#X connect 53 2 34 0;
#X connect 53 3 73 0;
#X connect 53 4 76 0;
#X connect 53 5 77 0;
#X connect 54 0 59 0;
#X connect 55 0 57 0;
#X connect 56 0 55 1;
#X connect 57 0 90 0;
#X connect 58 0 55 0;
#X connect 59 0 74 0;
#X connect 60 0 65 0;
#X connect 61 0 63 0;
#X connect 62 0 61 1;
#X connect 63 0 89 0;
#X connect 64 0 61 0;
#X connect 65 0 75 0;
#X connect 66 0 71 0;
#X connect 67 0 69 0;
#X connect 68 0 67 1;
#X connect 69 0 91 0;
#X connect 70 0 67 0;
#X connect 71 0 78 0;
#X connect 72 0 3 0;
#X connect 72 0 12 0;
#X connect 72 0 21 0;
#X connect 72 0 28 0;
#X connect 72 0 38 0;
#X connect 72 0 47 0;
#X connect 72 0 56 0;
#X connect 72 0 62 0;
#X connect 72 0 68 0;
#X connect 73 0 54 0;
#X connect 74 0 79 0;
#X connect 75 0 64 0;
#X connect 76 0 60 0;
#X connect 77 0 66 0;
#X connect 78 0 70 0;
#X connect 79 0 58 0;
#X connect 80 0 1 0;
#X connect 81 0 53 0;
#X connect 82 0 72 0;
#X connect 92 0 19 0;
#X connect 93 0 26 0;
#X restore 106 1260 pd logik_left;
#X f 106;
#N canvas 0 25 3278 1408 logik_right 0;
#X obj 145 425 route x y;
#X obj 145 471 line;
#X obj 144 602 spigot;
#X obj 168 583 tgl 15 0 empty empty empty 17 7 0 10 -262144 -1 -1 1
1;
#X floatatom 142 666 5 0 0 0 - - -;
#X obj 145 539 int;
#X floatatom 145 562 5 0 127 0 - - -;
#X obj 145 516 * 128;
#X obj 147 495 hsl 20 15 0 1 0 0 empty empty empty -2 -8 0 10 -262144
-1 -1 512 1;
#X msg 194 448 \$1 50;
#X obj 194 471 line;
#X obj 193 602 spigot;
#X obj 217 583 tgl 15 0 empty empty empty 17 7 0 10 -262144 -1 -1 1
1;
#X floatatom 193 625 5 0 0 0 - - -;
#X obj 194 539 int;
#X floatatom 194 562 5 0 127 0 - - -;
#X obj 194 516 * 128;
#X obj 196 495 hsl 20 15 0 1 0 0 empty empty empty -2 -8 0 10 -262144
-1 -1 1838 1;
#X obj 248 424 route x y;
#X obj 248 470 line;
#X obj 247 601 spigot;
#X obj 271 582 tgl 15 0 empty empty empty 17 7 0 10 -262144 -1 -1 1
1;
#X floatatom 247 624 5 0 0 0 - - -;
#X floatatom 248 561 5 0 127 0 - - -;
#X obj 248 515 * 128;
#X obj 250 494 hsl 20 15 0 1 0 0 empty empty empty -2 -8 0 10 -262144
-1 -1 513 1;
#X obj 298 469 line;
#X obj 297 600 spigot;
#X obj 321 581 tgl 15 0 empty empty empty 17 7 0 10 -262144 -1 -1 1
1;
#X floatatom 297 623 5 0 0 0 - - -;
#X obj 298 537 int;
#X floatatom 298 560 5 0 127 0 - - -;
#X obj 298 514 * 128;
#X obj 300 493 hsl 20 15 0 1 0 0 empty empty empty -2 -8 0 10 -262144
-1 -1 1814 1;
#X obj 350 423 route x y;
#X msg 350 446 \$1 50;
#X obj 350 469 line;
#X obj 349 600 spigot;
#X obj 373 581 tgl 15 0 empty empty empty 17 7 0 10 -262144 -1 -1 1
1;
#X floatatom 349 623 5 0 0 0 - - -;
#X obj 350 537 int;
#X floatatom 350 560 5 0 127 0 - - -;
#X obj 350 514 * 128;
#X obj 352 493 hsl 20 15 0 1 0 0 empty empty empty -2 -8 0 10 -262144
-1 -1 638 1;
#X msg 401 446 \$1 50;
#X obj 401 469 line;
#X obj 400 600 spigot;
#X obj 424 581 tgl 15 0 empty empty empty 17 7 0 10 -262144 -1 -1 1
1;
#X floatatom 400 623 5 0 0 0 - - -;
#X obj 401 537 int;
#X floatatom 401 560 5 0 127 0 - - -;
#X obj 401 514 * 128;
#X obj 403 493 hsl 20 15 0 1 0 0 empty empty empty -2 -8 0 10 -262144
-1 -1 1797 1;
#X obj 147 399 route f0 f1 f2 dist_ti dist_ip dist_pt, f 66;
#X obj 467 477 line;
#X obj 465 630 spigot;
#X obj 489 611 tgl 15 0 empty empty empty 17 7 0 10 -262144 -1 -1 1
1;
#X floatatom 465 653 5 0 0 0 - - -;
#X floatatom 466 589 5 0 127 0 - - -;
#X obj 469 501 hsl 20 15 0 1 0 0 empty empty empty -2 -8 0 10 -262144
-1 -1 1900 1;
#X obj 516 477 line;
#X obj 514 630 spigot;
#X obj 538 611 tgl 15 0 empty empty empty 17 7 0 10 -262144 -1 -1 1
1;
#X floatatom 514 653 5 0 0 0 - - -;
#X floatatom 515 590 5 0 127 0 - - -;
#X obj 518 501 hsl 20 15 0 1 0 0 empty empty empty -2 -8 0 10 -262144
-1 -1 1900 1;
#X obj 570 476 line;
#X obj 568 629 spigot;
#X obj 592 610 tgl 15 0 empty empty empty 17 7 0 10 -262144 -1 -1 1
1;
#X floatatom 568 652 5 0 0 0 - - -;
#X floatatom 569 589 5 0 127 0 - - -;
#X obj 572 500 hsl 20 15 0 1 0 0 empty empty empty -2 -8 0 10 -262144
-1 -1 1900 1;
#X obj 595 357 tgl 15 0 empty empty empty 17 7 0 10 -262144 -1 -1 1
1;
#X msg 467 454 \$1 500;
#X obj 467 522 / 4;
#X obj 516 522 / 6;
#X msg 516 454 \$1 500;
#X msg 570 453 \$1 500;
#X obj 570 521 / 4;
#X obj 467 545 + 10;
#X msg 145 448 \$1 5;
#X obj 145 325 inlet;
#X obj 591 328 inlet;
#X obj 139 708 outlet;
#X obj 188 711 outlet;
#X obj 236 722 outlet;
#X obj 289 719 outlet;
#X obj 338 722 outlet;
#X obj 386 733 outlet;
#X obj 455 713 outlet;
#X obj 504 716 outlet;
#X obj 552 727 outlet;
#X msg 248 447 \$1 50;
#X msg 298 446 \$1 50;
#X connect 0 0 80 0;
#X connect 0 1 9 0;
#X connect 1 0 8 0;
#X connect 2 0 4 0;
#X connect 3 0 2 1;
#X connect 4 0 83 0;
#X connect 5 0 6 0;
#X connect 6 0 2 0;
#X connect 7 0 5 0;
#X connect 8 0 7 0;
#X connect 9 0 10 0;
#X connect 10 0 17 0;
#X connect 11 0 13 0;
#X connect 12 0 11 1;
#X connect 13 0 84 0;
#X connect 14 0 15 0;
#X connect 15 0 11 0;
#X connect 16 0 14 0;
#X connect 17 0 16 0;
#X connect 18 0 92 0;
#X connect 18 1 93 0;
#X connect 19 0 25 0;
#X connect 20 0 22 0;
#X connect 21 0 20 1;
#X connect 22 0 85 0;
#X connect 23 0 20 0;
#X connect 24 0 23 0;
#X connect 25 0 24 0;
#X connect 26 0 33 0;
#X connect 27 0 29 0;
#X connect 28 0 27 1;
#X connect 29 0 86 0;
#X connect 30 0 31 0;
#X connect 31 0 27 0;
#X connect 32 0 30 0;
#X connect 33 0 32 0;
#X connect 34 0 35 0;
#X connect 34 1 44 0;
#X connect 35 0 36 0;
#X connect 36 0 43 0;
#X connect 37 0 39 0;
#X connect 38 0 37 1;
#X connect 39 0 87 0;
#X connect 40 0 41 0;
#X connect 41 0 37 0;
#X connect 42 0 40 0;
#X connect 43 0 42 0;
#X connect 44 0 45 0;
#X connect 45 0 52 0;
#X connect 46 0 48 0;
#X connect 47 0 46 1;
#X connect 48 0 88 0;
#X connect 49 0 50 0;
#X connect 50 0 46 0;
#X connect 51 0 49 0;
#X connect 52 0 51 0;
#X connect 53 0 0 0;
#X connect 53 1 18 0;
#X connect 53 2 34 0;
#X connect 53 3 73 0;
#X connect 53 4 76 0;
#X connect 53 5 77 0;
#X connect 54 0 59 0;
#X connect 55 0 57 0;
#X connect 56 0 55 1;
#X connect 57 0 89 0;
#X connect 58 0 55 0;
#X connect 59 0 74 0;
#X connect 60 0 65 0;
#X connect 61 0 63 0;
#X connect 62 0 61 1;
#X connect 63 0 90 0;
#X connect 64 0 61 0;
#X connect 65 0 75 0;
#X connect 66 0 71 0;
#X connect 67 0 69 0;
#X connect 68 0 67 1;
#X connect 69 0 91 0;
#X connect 70 0 67 0;
#X connect 71 0 78 0;
#X connect 72 0 3 0;
#X connect 72 0 12 0;
#X connect 72 0 21 0;
#X connect 72 0 28 0;
#X connect 72 0 38 0;
#X connect 72 0 47 0;
#X connect 72 0 56 0;
#X connect 72 0 62 0;
#X connect 72 0 68 0;
#X connect 73 0 54 0;
#X connect 74 0 79 0;
#X connect 75 0 64 0;
#X connect 76 0 60 0;
#X connect 77 0 66 0;
#X connect 78 0 70 0;
#X connect 79 0 58 0;
#X connect 80 0 1 0;
#X connect 81 0 53 0;
#X connect 82 0 72 0;
#X connect 92 0 19 0;
#X connect 93 0 26 0;
#X restore 1747 1259 pd logik_right;
#X f 104;
#X obj 930 1844 r vol_grain1;
#N canvas 0 25 1297 974 synth_left 0;
#X obj 757 839 s pos_3rd;
#X obj 1019 840 s pos_2nd;
#X obj 399 709 r grain_length_samples;
#X obj 103 708 r sr;
#X obj 142 708 r grain_length_samples;
#X obj 570 707 r start_position_samples;
#X obj 311 709 r len_array;
#X obj 757 707 r grain_spread_samples;
#X obj 928 704 r grain_spatial_spread;
#X obj 1065 741 r multiplier;
#X obj 345 791 supergrain, f 68;
#X floatatom 1071 773 5 0 0 0 - - -;
#X obj 341 833 outlet~;
#X obj 506 832 outlet~;
#X obj 785 295 int;
#X floatatom 785 324 5 0 0 3 grain_length_samples - grain_length_samples
;
#X obj 785 227 / 127;
#X obj 114 227 / 127;
#X obj 114 250 *;
#X obj 143 250 r len_array;
#X obj 114 273 int;
#X floatatom 114 296 10 0 0 3 start_position_samples - start_position_samples
;
#X obj 785 520 /;
#X obj 807 480 r sr;
#X floatatom 785 543 5 0 0 3 grain_length_sec - grain_length_sec;
#X obj 785 249 0;
#X obj 114 526 /;
#X obj 130 486 r sr;
#X floatatom 114 549 5 0 0 3 start_position_sec - start_position_sec
;
#X obj 394 265 / 127;
#X obj 394 288 *;
#X obj 394 311 int;
#X floatatom 394 334 15 0 0 3 grain_spread_samples - grain_spread_samples
;
#X obj 394 441 /;
#X obj 412 399 r sr;
#X floatatom 394 464 5 0 0 3 grain_spread_sec - grain_spread_sec;
#X obj 611 240 / 127;
#X floatatom 611 288 5 0 0 3 grain_spatial_spread - grain_spatial_spread
;
#X obj 611 263 * 1;
#X obj 786 455 r grain_length_samples;
#X obj 400 233 r max_grain_spread_samples;
#X obj 394 420 r grain_spread_samples;
#X obj 114 463 r start_position_samples;
#X floatatom 991 387 5 0 0 1 multiplier - multiplier;
#X obj 986 287 t b f;
#X floatatom 1015 316 5 0 0 0 - - -;
#X msg 983 316 1;
#X obj 983 339 /;
#X obj 978 230 * 7;
#X obj 978 207 / 127;
#X obj 131 344 s pos_1st;
#X obj 983 362 expr round($f1*1000)/1000;
#X obj 785 272 * 20500;
#X obj 1147 238 s vol_grain1;
#X obj 157 182 inlet;
#X obj 393 194 inlet;
#X obj 611 200 inlet;
#X obj 790 196 inlet;
#X obj 974 184 inlet;
#X obj 1143 206 inlet;
#X connect 2 0 10 3;
#X connect 3 0 10 0;
#X connect 4 0 10 1;
#X connect 5 0 10 4;
#X connect 6 0 10 2;
#X connect 7 0 10 5;
#X connect 8 0 10 6;
#X connect 9 0 10 7;
#X connect 9 0 11 0;
#X connect 10 0 12 0;
#X connect 10 1 13 0;
#X connect 10 2 0 0;
#X connect 10 3 1 0;
#X connect 14 0 15 0;
#X connect 16 0 25 0;
#X connect 17 0 18 0;
#X connect 18 0 20 0;
#X connect 19 0 18 1;
#X connect 20 0 21 0;
#X connect 22 0 24 0;
#X connect 23 0 22 1;
#X connect 25 0 52 0;
#X connect 26 0 28 0;
#X connect 27 0 26 1;
#X connect 29 0 30 0;
#X connect 30 0 31 0;
#X connect 31 0 32 0;
#X connect 33 0 35 0;
#X connect 34 0 33 1;
#X connect 36 0 38 0;
#X connect 38 0 37 0;
#X connect 39 0 22 0;
#X connect 40 0 30 1;
#X connect 41 0 33 0;
#X connect 42 0 26 0;
#X connect 44 0 46 0;
#X connect 44 1 45 0;
#X connect 45 0 47 1;
#X connect 46 0 47 0;
#X connect 47 0 51 0;
#X connect 48 0 44 0;
#X connect 49 0 48 0;
#X connect 51 0 43 0;
#X connect 52 0 14 0;
#X connect 54 0 17 0;
#X connect 54 0 50 0;
#X connect 55 0 29 0;
#X connect 56 0 36 0;
#X connect 57 0 16 0;
#X connect 58 0 49 0;
#X connect 59 0 53 0;
#X restore 108 1907 pd synth_left;
#X f 108;
#X msg 2100 162 18.15;
#X obj 2101 217 s speed;
#X obj 701 1328 r speed;
#X obj 2337 1343 r speed;
#X obj 1463 1858 r vol_grain2;
#N canvas 0 25 1747 1439 synth_right 0;
#X obj 161 1066 r sr;
#X obj 369 1067 r len_array;
#X obj 403 1149 supergrain, f 68;
#X obj 200 1066 r grain_length_samples2;
#X obj 457 1067 r grain_length_samples2;
#X obj 628 1065 r start_position_samples2;
#X obj 815 1065 r grain_spread_samples2;
#X obj 986 1062 r grain_spatial_spread2;
#X obj 1123 1099 r multiplier2;
#X obj 1077 1198 s pos_2nd2;
#X obj 815 1197 s pos_3rd2;
#X floatatom 1130 1135 5 0 0 0 - - -;
#X obj 396 1206 outlet~;
#X obj 560 1211 outlet~;
#X obj 925 478 int;
#X obj 925 410 / 127;
#X obj 226 389 / 127;
#X obj 226 412 *;
#X obj 255 412 r len_array;
#X obj 226 435 int;
#X obj 884 674 /;
#X obj 906 634 r sr;
#X obj 925 432 0;
#X obj 226 688 /;
#X obj 242 648 r sr;
#X obj 507 456 / 127;
#X obj 507 479 *;
#X obj 507 502 int;
#X obj 507 632 /;
#X obj 525 590 r sr;
#X obj 739 457 / 127;
#X obj 739 480 * 1;
#X obj 513 424 r max_grain_spread_samples;
#X obj 1135 544 t b f;
#X floatatom 1169 579 5 0 0 0 - - -;
#X msg 1132 573 1;
#X obj 1132 596 /;
#X obj 1127 487 * 7;
#X obj 1127 464 / 127;
#X obj 1132 619 expr round($f1*1000)/1000;
#X obj 925 455 * 20500;
#X obj 243 506 s pos_1st2;
#X obj 226 625 r start_position_samples2;
#X obj 507 611 r grain_spread_samples2;
#X obj 885 609 r grain_length_samples2;
#X floatatom 1132 642 5 0 0 1 multiplier2 - multiplier2;
#X floatatom 925 501 5 0 0 1 grain_length_samples2 - grain_length_samples2
;
#X floatatom 884 697 5 0 0 1 grain_length_sec2 - grain_length_sec2
;
#X floatatom 739 503 5 0 0 1 grain_spatial_spread2 - grain_spatial_spread2
;
#X floatatom 507 525 5 0 0 1 grain_spread_samples2 - grain_spread_samples2
;
#X floatatom 507 655 5 0 0 1 grain_spread_sec2 - grain_spread_sec2
;
#X floatatom 226 711 5 0 0 1 start_position_sec2 - start_position_sec2
;
#X floatatom 226 458 15 0 0 1 start_position_samples2 - start_position_samples2
;
#X obj 1226 422 s vol_grain2;
#X obj 1225 392 inlet;
#X obj 214 356 inlet;
#X obj 502 384 inlet;
#X obj 716 392 inlet;
#X obj 924 382 inlet;
#X obj 1104 388 inlet;
#X connect 0 0 2 0;
#X connect 1 0 2 2;
#X connect 2 0 12 0;
#X connect 2 1 13 0;
#X connect 2 2 10 0;
#X connect 2 3 9 0;
#X connect 3 0 2 1;
#X connect 4 0 2 3;
#X connect 5 0 2 4;
#X connect 6 0 2 5;
#X connect 7 0 2 6;
#X connect 8 0 2 7;
#X connect 8 0 11 0;
#X connect 14 0 46 0;
#X connect 15 0 22 0;
#X connect 16 0 17 0;
#X connect 17 0 19 0;
#X connect 18 0 17 1;
#X connect 19 0 52 0;
#X connect 20 0 47 0;
#X connect 21 0 20 1;
#X connect 22 0 40 0;
#X connect 23 0 51 0;
#X connect 24 0 23 1;
#X connect 25 0 26 0;
#X connect 26 0 27 0;
#X connect 27 0 49 0;
#X connect 28 0 50 0;
#X connect 29 0 28 1;
#X connect 30 0 31 0;
#X connect 31 0 48 0;
#X connect 32 0 26 1;
#X connect 33 0 35 0;
#X connect 33 1 34 0;
#X connect 34 0 36 1;
#X connect 35 0 36 0;
#X connect 36 0 39 0;
#X connect 37 0 33 0;
#X connect 38 0 37 0;
#X connect 39 0 45 0;
#X connect 40 0 14 0;
#X connect 42 0 23 0;
#X connect 43 0 28 0;
#X connect 44 0 20 0;
#X connect 54 0 53 0;
#X connect 55 0 16 0;
#X connect 55 0 41 0;
#X connect 56 0 25 0;
#X connect 57 0 30 0;
#X connect 58 0 15 0;
#X connect 59 0 38 0;
#X restore 1740 1915 pd synth_right;
#X f 106;
#X obj 850 1227 tgl 15 0 empty empty empty 17 7 0 10 -262144 -1 -1
1 1;
#X obj 851 1201 r all_on;
#X obj 2454 1231 tgl 15 0 empty empty empty 17 7 0 10 -262144 -1 -1
1 1;
#X obj 2455 1205 r all_on;
#X obj 2352 238 tgl 15 0 empty empty empty 17 7 0 10 -204786 -1 -1
1 1;
#X obj 2352 259 s all_on;
#X obj 1942 150 bang;
#X obj 211 476 oscparse;
#X obj 211 454 netreceive -u -b 12000;
#X msg 210 429 listen 12000;
#X obj 1763 104 r sample_switch;
#X msg 2510 206 \; pd dsp 1;
#X msg 2581 206 \; pd dsp 0;
#X obj 2511 141 r all_on;
#X obj 2511 164 route 1 0;
#X obj 2511 187 bng 15 250 50 0 empty empty empty 17 7 0 10 -262144
-1 -1;
#X obj 2583 187 bng 15 250 50 0 empty empty empty 17 7 0 10 -262144
-1 -1;
#X obj 585 500 cnv 15 800 300 empty empty empty 20 12 0 14 -204786
-66577 0;
#X msg 806 508 read -resize samples/sample7.wav l r;
#X msg 806 548 read -resize samples/canadian_forest.wav l r;
#X msg 806 608 read -resize samples/glockenspiel.wav l r;
#X msg 806 568 read -resize samples/flutes.wav l r;
#X msg 806 588 read -resize samples/voice.wav l r;
#X msg 806 628 read -resize samples/organ.wav l r;
#X obj 585 800 s sample_switch;
#X obj 1226 803 s speed;
#X msg 1334 545 18.15;
#X msg 1334 525 36.3;
#X msg 1334 505 72.6;
#X msg 1334 565 9.07;
#X obj 211 499 list trim;
#X obj 211 522 route wek;
#X obj 211 545 route outputs;
#X obj 210 644 route 1 2 3;
#X obj 74 688 print;
#X msg 76 660 300;
#X msg 210 668 1;
#X msg 246 668 2;
#X obj 134 550 tgl 15 0 empty empty empty 17 7 0 10 -262144 -1 -1 1
1;
#X obj 134 530 r all_on;
#X msg 211 567 0;
#X obj 211 592 +;
#X floatatom 211 615 5 0 0 0 - - -;
#X obj 210 690 bng 30 250 50 0 empty empty empty 17 7 0 10 -204786
-33289 -1;
#X obj 246 690 bng 30 250 50 0 empty empty empty 17 7 0 10 -204786
-33289 -1;
#X obj 210 725 s b1;
#X obj 246 725 s b2;
#X obj 585 393 r b1;
#X obj 585 449 hradio 15 1 0 10 empty empty empty 0 -8 0 10 -204786
-1 -1 9;
#X msg 772 479 0;
#X obj 534 464 +;
#X msg 585 427 1;
#X obj 1130 450 hradio 15 1 0 4 empty empty empty 0 -8 0 10 -204786
-1 -1 3;
#X obj 1079 465 +;
#X msg 1130 428 1;
#X obj 1130 480 route 0 1 2 3 4;
#X msg 1243 481 0;
#X obj 1130 394 r b2;
#X floatatom 541 493 5 0 0 0 - - -;
#X obj 789 649 bng 15 250 50 0 empty empty empty 17 7 0 10 -262144
-1 -1;
#X obj 789 629 bng 15 250 50 0 empty empty empty 17 7 0 10 -262144
-1 -1;
#X obj 789 669 bng 15 250 50 0 empty empty empty 17 7 0 10 -262144
-1 -1;
#X obj 789 688 bng 15 250 50 0 empty empty empty 17 7 0 10 -262144
-1 -1;
#X obj 789 589 bng 15 250 50 0 empty empty empty 17 7 0 10 -262144
-1 -1;
#X obj 789 568 bng 15 250 50 0 empty empty empty 17 7 0 10 -262144
-1 -1;
#X obj 789 609 bng 15 250 50 0 empty empty empty 17 7 0 10 -262144
-1 -1;
#X msg 806 648 read -resize samples/ l r;
#X msg 806 668 read -resize samples/ l r;
#X msg 806 688 read -resize samples/ l r;
#X obj 789 528 bng 15 250 50 0 empty empty empty 17 7 0 10 -262144
-1 -1;
#X obj 789 508 bng 15 250 50 0 empty empty empty 17 7 0 10 -262144
-1 -1;
#X obj 789 548 bng 15 250 50 0 empty empty empty 17 7 0 10 -262144
-1 -1;
#X obj 585 479 route 0 1 2 3 4 5 6 7 8 9;
#X obj 134 567 metro 2000;
#X msg 806 528 read -resize samples/lung_sounds.wav l r;
#X connect 2 0 75 0;
#X connect 3 0 75 1;
#X connect 4 0 75 2;
#X connect 5 0 75 3;
#X connect 7 0 6 0;
#X connect 8 0 9 0;
#X connect 11 0 12 0;
#X connect 12 0 14 0;
#X connect 13 0 12 1;
#X connect 15 0 7 0;
#X connect 15 0 88 0;
#X connect 17 0 70 0;
#X connect 18 0 17 1;
#X connect 18 0 37 1;
#X connect 19 0 75 4;
#X connect 21 0 22 0;
#X connect 23 0 21 0;
#X connect 23 0 17 0;
#X connect 26 0 24 0;
#X connect 27 0 25 0;
#X connect 29 0 20 0;
#X connect 34 0 35 0;
#X connect 36 0 34 0;
#X connect 36 0 37 0;
#X connect 37 0 71 0;
#X connect 38 0 39 0;
#X connect 39 0 42 0;
#X connect 40 0 41 0;
#X connect 41 0 38 0;
#X connect 42 0 43 0;
#X connect 43 0 72 0;
#X connect 43 1 73 0;
#X connect 44 0 7 0;
#X connect 45 0 23 0;
#X connect 46 0 36 0;
#X connect 47 0 81 0;
#X connect 48 0 81 1;
#X connect 49 0 81 2;
#X connect 50 0 81 3;
#X connect 51 0 81 4;
#X connect 52 0 30 0;
#X connect 53 0 31 0;
#X connect 54 0 32 0;
#X connect 55 0 10 0;
#X connect 56 0 45 0;
#X connect 57 0 75 5;
#X connect 58 0 46 0;
#X connect 59 0 45 0;
#X connect 60 0 81 5;
#X connect 61 0 46 0;
#X connect 62 0 65 0;
#X connect 63 0 62 0;
#X connect 63 0 64 0;
#X connect 64 0 60 0;
#X connect 65 0 64 0;
#X connect 66 0 69 0;
#X connect 67 0 66 0;
#X connect 67 0 68 0;
#X connect 68 0 57 0;
#X connect 69 0 68 0;
#X connect 70 0 16 0;
#X connect 71 0 16 1;
#X connect 72 0 67 0;
#X connect 72 2 2 0;
#X connect 72 6 5 0;
#X connect 72 8 4 0;
#X connect 73 0 63 0;
#X connect 73 2 47 0;
#X connect 73 6 50 0;
#X connect 73 8 49 0;
#X connect 74 0 56 1;
#X connect 74 0 58 1;
#X connect 75 0 56 0;
#X connect 75 1 58 0;
#X connect 76 0 77 0;
#X connect 78 0 19 0;
#X connect 79 0 51 0;
#X connect 80 0 59 1;
#X connect 80 0 61 1;
#X connect 81 0 59 0;
#X connect 81 1 61 0;
#X connect 82 0 72 1;
#X connect 83 0 82 0;
#X connect 84 0 73 1;
#X connect 85 0 84 0;
#X connect 86 0 87 0;
#X connect 86 0 76 0;
#X connect 88 0 8 0;
#X connect 88 0 55 0;
#X connect 89 0 112 0;
#X connect 90 0 89 0;
#X connect 91 0 90 0;
#X connect 92 0 15 0;
#X connect 95 0 96 0;
#X connect 96 0 97 0;
#X connect 96 1 98 0;
#X connect 97 0 93 0;
#X connect 98 0 94 0;
#X connect 100 0 106 0;
#X connect 101 0 106 0;
#X connect 102 0 106 0;
#X connect 103 0 106 0;
#X connect 104 0 106 0;
#X connect 105 0 106 0;
#X connect 108 0 107 0;
#X connect 109 0 107 0;
#X connect 110 0 107 0;
#X connect 111 0 107 0;
#X connect 112 0 113 0;
#X connect 113 0 114 0;
#X connect 114 0 123 1;
#X connect 115 0 118 0;
#X connect 115 1 119 0;
#X connect 117 0 116 0;
#X connect 118 0 125 0;
#X connect 119 0 126 0;
#X connect 120 0 155 0;
#X connect 121 0 120 0;
#X connect 122 0 123 0;
#X connect 123 0 124 0;
#X connect 124 0 115 0;
#X connect 125 0 127 0;
#X connect 126 0 128 0;
#X connect 129 0 133 0;
#X connect 130 0 132 1;
#X connect 130 0 140 0;
#X connect 130 0 154 0;
#X connect 131 0 130 0;
#X connect 132 0 130 0;
#X connect 133 0 132 0;
#X connect 134 0 135 1;
#X connect 134 0 137 0;
#X connect 135 0 134 0;
#X connect 136 0 135 0;
#X connect 137 0 111 0;
#X connect 137 1 108 0;
#X connect 137 2 109 0;
#X connect 137 3 110 0;
#X connect 137 4 138 0;
#X connect 138 0 134 0;
#X connect 139 0 136 0;
#X connect 141 0 148 0;
#X connect 142 0 105 0;
#X connect 143 0 149 0;
#X connect 144 0 150 0;
#X connect 145 0 104 0;
#X connect 146 0 103 0;
#X connect 147 0 102 0;
#X connect 151 0 156 0;
#X connect 152 0 100 0;
#X connect 153 0 101 0;
#X connect 154 0 144 0;
#X connect 154 1 143 0;
#X connect 154 2 141 0;
#X connect 154 3 142 0;
#X connect 154 4 147 0;
#X connect 154 5 145 0;
#X connect 154 6 146 0;
#X connect 154 7 153 0;
#X connect 154 8 151 0;
#X connect 154 9 152 0;
#X connect 154 10 131 0;
#X connect 155 0 122 0;
#X connect 156 0 106 0;
